<svg xmlns="http://www.w3.org/2000/svg" id="uuid-711905cd-66e1-4f29-9bfb-d1d67ad9da18" viewBox="0 0 50 50"><defs><style>.uuid-08aed66b-8ead-43b4-8dad-9abe5a6803a1{fill:#f2f2f2;}</style></defs><g id="uuid-bf42ae4a-538a-4736-8a42-1aae017b7137"><g><path class="uuid-08aed66b-8ead-43b4-8dad-9abe5a6803a1" d="m25,50C11.21,50,0,38.79,0,25S11.21,0,25,0s25,11.21,25,25-11.21,25-25,25Zm0-49C11.77,1,1,11.77,1,25s10.77,24,24,24,24-10.77,24-24S38.23,1,25,1Z"></path><path class="uuid-08aed66b-8ead-43b4-8dad-9abe5a6803a1" d="m18.91,20.05h-4.58v14.82h4.58v-14.82Z"></path><path class="uuid-08aed66b-8ead-43b4-8dad-9abe5a6803a1" d="m16.6,18.1c1.5,0,2.71-1.23,2.71-2.73s-1.22-2.73-2.71-2.73-2.71,1.23-2.71,2.73,1.22,2.73,2.71,2.73Z"></path><path class="uuid-08aed66b-8ead-43b4-8dad-9abe5a6803a1" d="m26.25,27.09c0-2.09.96-3.33,2.8-3.33,1.69,0,2.5,1.19,2.5,3.33v7.78h4.56v-9.38c0-3.97-2.25-5.89-5.39-5.89s-4.47,2.45-4.47,2.45v-2h-4.4v14.82h4.4v-7.78h0Z"></path></g></g></svg>