<svg xmlns="http://www.w3.org/2000/svg" id="uuid-4ef244c7-572e-4ff0-ad0b-9a68395c5f46" viewBox="0 0 423.25 114.13"><defs><style>.uuid-de4603c5-c591-42da-ac88-2ae9bcb3f3b6{fill:#5443be;}</style></defs><g><path class="uuid-de4603c5-c591-42da-ac88-2ae9bcb3f3b6" d="m61.31,38.93c-.18-.11-.36-.2-.55-.29-1.12-.53-2.38-.82-3.69-.82s-2.59.29-3.71.82c-.18.09-.36.18-.53.29-3.11,1.7-5.01,5.28-4.32,9.17.62,3.51,3.44,6.34,6.95,6.97,5.51.99,10.3-3.22,10.3-8.56,0-3.25-1.79-6.11-4.45-7.58Z"></path><path class="uuid-de4603c5-c591-42da-ac88-2ae9bcb3f3b6" d="m0,9.97v94.19C0,109.67,4.46,114.13,9.97,114.13h94.19c5.51,0,9.97-4.46,9.97-9.97V9.97c0-5.51-4.46-9.97-9.97-9.97H9.97C4.46,0,0,4.46,0,9.97Zm12.66,34.81c0-.51.01-1,.06-1.5,0,0,0-.01.02-.03,0-.06.01-.14.01-.2v-.05c.33-2.39,2.39-4.25,4.87-4.25.92,0,1.8.27,2.54.73l18.47,11c.08,1.59.36,3.12.82,4.56.12.39.26.77.41,1.15l.42.98.59,1.36h-14.38c-7.61,0-13.81-6.15-13.83-13.76Zm30.76,19.78c-.15.29-.3.58-.47.85-.15.27-.32.53-.5.79-.18.27-.36.53-.56.77-.39.5-.82.97-1.27,1.41-.18.18-.36.35-.56.51-1.24,1.08-2.68,1.94-4.25,2.53-.2.08-.39.15-.61.21-.73.23-1.47.41-2.24.51-.29.05-.58.08-.86.11-.38.03-.76.05-1.15.05-.24,0-.5-.01-.74-.03h-.01c-.11,0-.23,0-.33-.02h-.06c-.11,0-.18-.01-.27-.03-.03,0-.06,0-.09-.01-.15-.02-.29-.03-.44-.06-2.59-.55-4.51-2.83-4.51-5.57,0-3.16,2.54-5.72,5.69-5.72l11.65-.06,1.59,3.75h0Zm13.65,24.7l-4.51-10.59c1.48-.12,3-.17,4.51-.17s3.03.05,4.51.17l-4.51,10.59Zm5.71-13.43c-1.88-.15-3.78-.23-5.71-.23s-3.83.08-5.72.24l-1.89-4.45c2.5.26,5.04.38,7.61.38s5.1-.12,7.6-.38l-1.89,4.43Zm3.19-7.49c-2.92.36-5.89.54-8.9.54s-5.99-.18-8.91-.54l-1.74-4.12c3.47.56,7.02.83,10.65.83s7.17-.27,10.64-.82l-1.74,4.1Zm-1.35-6.58c-1.48.17-3,.29-4.51.36-1,.05-2.03.06-3.04.06-4.09,0-8.1-.38-11.99-1.09l-2.27-5.31c-.45-1.03-.8-2.1-1.01-3.24-.35-1.45-.53-2.98-.53-4.56,0-1.77.23-3.5.65-5.13.26-.92.56-1.82.92-2.68.06-.14.12-.27.18-.41,1.39-2.89,3.65-5.28,6.45-6.84l-3.77-6.74s-.04-.08-.06-.11c-.06-.11-.09-.24-.09-.38,0-.45.36-.82.83-.82.33,0,.62.21.74.5l3.31,7.04c2.01-.95,4.25-1.48,6.63-1.48s4.6.53,6.61,1.48l3.31-7.04c.12-.29.41-.5.76-.5.45,0,.82.36.82.82,0,.14-.03.27-.09.38-.01.03-.03.08-.06.11l-3.77,6.74c2.8,1.56,5.05,3.95,6.45,6.84.08.14.12.27.18.41.36.86.68,1.76.92,2.68.42,1.63.65,3.36.65,5.13,0,1.57-.18,3.1-.51,4.56-.23,1.14-.57,2.21-1.03,3.24l-2.27,5.33c-1.45.27-2.94.48-4.42.65Zm20.51,10.4c-.15.03-.29.05-.44.06-.03.01-.06.01-.09.01-.09.02-.17.03-.27.03h-.06c-.11.02-.23.02-.33.02h-.01c-.24.01-.5.03-.74.03-.39,0-.77-.01-1.15-.05-.29-.03-.58-.06-.86-.11-.77-.11-1.51-.29-2.24-.51-.21-.06-.41-.14-.61-.21-1.57-.59-3.01-1.45-4.25-2.53-.2-.17-.38-.33-.56-.51-.45-.44-.88-.91-1.27-1.41-.2-.24-.38-.5-.56-.77-.18-.26-.35-.51-.5-.79-.17-.27-.32-.56-.47-.85h0s1.59-3.77,1.59-3.77l11.65.06c3.15,0,5.69,2.56,5.69,5.72,0,2.74-1.92,5.02-4.51,5.57Zm2.5-13.61h-14.38s.59-1.36.59-1.36l.42-.98c.15-.38.29-.76.41-1.15.45-1.44.74-2.97.82-4.56l18.47-11c.74-.45,1.62-.73,2.54-.73,2.48,0,4.54,1.86,4.87,4.25v.05c0,.06.01.14.01.2.02.01.02.03.02.03.05.49.06.99.06,1.5-.02,7.61-6.22,13.76-13.83,13.76Z"></path></g><g><path class="uuid-de4603c5-c591-42da-ac88-2ae9bcb3f3b6" d="m377.13,56.86c0-4.12.67-8.01,2.01-11.67,1.34-3.65,3.27-6.84,5.81-9.55,2.53-2.71,5.61-4.87,9.22-6.46,3.62-1.59,7.74-2.39,12.37-2.39,3.04,0,5.82.27,8.36.81,2.53.54,4.99,1.32,7.38,2.33l-3.36,12.91c-1.52-.58-3.19-1.08-4.99-1.52-1.81-.43-3.84-.65-6.08-.65-4.78,0-8.34,1.48-10.69,4.45-2.35,2.97-3.53,6.88-3.53,11.72,0,5.14,1.1,9.12,3.31,11.94,2.21,2.82,6.06,4.23,11.56,4.23,1.95,0,4.05-.18,6.29-.54,2.24-.36,4.3-.94,6.19-1.74l2.28,13.24c-1.88.8-4.23,1.48-7.05,2.06-2.82.58-5.93.87-9.33.87-5.21,0-9.7-.78-13.46-2.33-3.76-1.56-6.86-3.67-9.28-6.35-2.42-2.68-4.2-5.84-5.32-9.5-1.12-3.65-1.68-7.61-1.68-11.88Z"></path><path class="uuid-de4603c5-c591-42da-ac88-2ae9bcb3f3b6" d="m128.39,30.48c2.75-.79,6.29-1.54,10.64-2.23,4.34-.69,8.9-1.03,13.67-1.03s8.88.63,12.1,1.9c3.22,1.27,5.77,3.06,7.65,5.37,1.88,2.32,3.22,5.06,4.02,8.25.8,3.18,1.19,6.73,1.19,10.64v32.23h-16.17v-30.28c0-5.21-.69-8.9-2.06-11.07-1.38-2.17-3.94-3.26-7.71-3.26-1.16,0-2.39.05-3.69.16-1.3.11-2.46.23-3.47.38v44.06h-16.17V30.48Z"></path><path class="uuid-de4603c5-c591-42da-ac88-2ae9bcb3f3b6" d="m240.67,56.96c0,4.45-.65,8.53-1.94,12.23-1.29,3.7-3.16,6.86-5.6,9.48-2.44,2.62-5.37,4.65-8.78,6.09-3.41,1.44-7.24,2.16-11.48,2.16s-7.96-.72-11.37-2.16c-3.41-1.44-6.34-3.46-8.78-6.09-2.44-2.62-4.35-5.78-5.71-9.48-1.37-3.7-2.05-7.77-2.05-12.23s.7-8.51,2.1-12.18c1.4-3.66,3.34-6.79,5.82-9.37,2.48-2.59,5.42-4.6,8.84-6.03,3.41-1.44,7.13-2.16,11.15-2.16s7.85.72,11.26,2.16c3.41,1.44,6.34,3.45,8.78,6.03,2.44,2.59,4.35,5.71,5.71,9.37,1.36,3.66,2.05,7.72,2.05,12.18Zm-16.38,0c0-4.96-.99-8.85-2.96-11.69-1.98-2.84-4.8-4.26-8.46-4.26s-6.5,1.42-8.51,4.26c-2.01,2.84-3.02,6.73-3.02,11.69s1.01,8.89,3.02,11.8c2.01,2.91,4.85,4.36,8.51,4.36s6.48-1.46,8.46-4.36c1.97-2.91,2.96-6.84,2.96-11.8Z"></path><path class="uuid-de4603c5-c591-42da-ac88-2ae9bcb3f3b6" d="m246.66,57.5c0-5.03.77-9.43,2.32-13.2,1.54-3.77,3.57-6.91,6.09-9.43,2.51-2.51,5.4-4.42,8.67-5.71,3.27-1.29,6.63-1.94,10.07-1.94,8.04,0,14.4,2.46,19.07,7.38,4.67,4.92,7,12.16,7,21.71,0,.93-.04,1.96-.11,3.07-.07,1.12-.14,2.1-.22,2.96h-36.42c.36,3.3,1.9,5.92,4.63,7.86,2.73,1.94,6.39,2.91,10.99,2.91,2.94,0,5.83-.27,8.67-.81,2.84-.54,5.15-1.2,6.95-1.99l2.15,13.04c-.86.43-2.01.86-3.45,1.29-1.44.43-3.04.81-4.79,1.13-1.76.32-3.65.59-5.66.81-2.01.22-4.02.32-6.03.32-5.1,0-9.53-.75-13.31-2.26-3.77-1.51-6.9-3.57-9.37-6.2-2.48-2.62-4.31-5.73-5.49-9.32-1.18-3.59-1.78-7.47-1.78-11.64Zm37.71-6.14c-.07-1.36-.31-2.69-.7-3.99-.4-1.29-1.01-2.44-1.83-3.45-.83-1-1.87-1.83-3.12-2.48-1.26-.65-2.82-.97-4.69-.97s-3.34.31-4.63.92c-1.29.61-2.37,1.42-3.23,2.42-.86,1.01-1.53,2.17-1.99,3.5-.47,1.33-.81,2.68-1.02,4.04h21.22Z"></path><path class="uuid-de4603c5-c591-42da-ac88-2ae9bcb3f3b6" d="m307.18,14.31l16.17-2.61v16.82h19.43v13.46h-19.43v20.08c0,3.4.6,6.11,1.79,8.14,1.19,2.03,3.6,3.04,7.22,3.04,1.74,0,3.53-.16,5.37-.49,1.84-.33,3.53-.78,5.05-1.36l2.28,12.59c-1.95.8-4.12,1.48-6.51,2.06-2.39.58-5.32.87-8.79.87-4.41,0-8.07-.6-10.96-1.79-2.89-1.19-5.21-2.86-6.95-4.99-1.74-2.13-2.95-4.72-3.64-7.76-.69-3.04-1.03-6.4-1.03-10.09V14.31Z"></path><path class="uuid-de4603c5-c591-42da-ac88-2ae9bcb3f3b6" d="m371.14,11.95c0,2.88-.93,5.15-2.8,6.81-1.86,1.65-4.06,2.48-6.6,2.48s-4.73-.82-6.6-2.48c-1.86-1.65-2.8-3.92-2.8-6.81s.93-5.15,2.8-6.81c1.86-1.65,4.06-2.48,6.6-2.48s4.73.83,6.6,2.48c1.86,1.65,2.8,3.92,2.8,6.81Zm-1.3,73.66h-16.17V28.53h16.17v57.08Z"></path></g></svg>