<svg xmlns="http://www.w3.org/2000/svg" width="48" height="48" viewBox="0 0 48 48" fill="none"><g clip-path="url(#clip0_405_3595)"><path d="M24 47.5C11.0209 47.5 0.5 36.9791 0.5 24C0.5 11.0209 11.0209 0.5 24 0.5C36.9791 0.5 47.5 11.0209 47.5 24C47.5 36.9791 36.9791 47.5 24 47.5Z" stroke="#F2F2F2"></path><path d="M18.1629 19.2471H13.7617V33.4735H18.1629V19.2471Z" fill="#F2F2F2"></path><path d="M15.9414 17.3773C17.3775 17.3773 18.545 16.1995 18.545 14.7531C18.545 13.3067 17.3775 12.1289 15.9414 12.1289C14.5053 12.1289 13.3379 13.3067 13.3379 14.7531C13.3379 16.1995 14.5053 17.3773 15.9414 17.3773Z" fill="#F2F2F2"></path><path d="M25.1982 26.0042C25.1982 23.9999 26.1177 22.8118 27.8844 22.8118C29.5064 22.8118 30.2813 23.9585 30.2813 26.0042V33.4738H34.6619V24.4648C34.6619 20.6525 32.5026 18.8135 29.4858 18.8135C26.469 18.8135 25.1982 21.1691 25.1982 21.1691V19.2474H20.9727V33.4738H25.1982V26.0042Z" fill="#F2F2F2"></path></g><defs><clipPath id="clip0_405_3595"><rect width="48" height="48" fill="white"></rect></clipPath></defs></svg>