<svg xmlns="http://www.w3.org/2000/svg" width="134" height="32" viewBox="0 0 134 32" fill="none"><g id="animalia"><path id="Vector" d="M24.0588 13.3873C25.1727 13.093 27.332 12.9395 28.5206 12.9395C29.2424 12.9395 29.4229 13.3105 29.4229 13.9056C29.4229 14.1999 29.3856 14.5326 29.3482 14.9037C31.072 13.6432 33.138 12.965 35.2475 12.9778C37.2264 12.9778 40.8233 13.5345 40.8233 18.2691C40.7797 22.1783 40.4997 26.0876 39.9956 29.9648C39.8836 30.8158 39.672 31.6667 38.4461 31.6667C37.4069 31.6348 36.3739 31.5132 35.3533 31.2957C34.5257 31.1101 34.2021 30.5535 34.2021 29.6641C34.2021 28.5893 34.6004 26.6634 34.6004 20.5596C34.6004 19.376 34.1336 18.6018 33.2313 18.6018C32.0427 18.6018 30.6426 19.0816 29.2736 20.0478C29.2736 23.2276 29.454 26.3755 29.7403 29.4466C29.7776 29.7025 29.8025 29.9648 29.8149 30.2272C29.8149 31.0781 29.454 31.5196 27.9107 31.5964C27.5187 31.6284 27.1204 31.6412 26.7222 31.6348C26.3363 31.6412 25.9567 31.6348 25.5709 31.5964C24.0961 31.5196 23.8098 30.931 23.6667 29.7473C23.2498 25.9276 23.032 22.0824 23.0195 18.2371C23.0195 17.3478 23.0195 16.4648 23.0569 15.5755C23.0942 14.4302 23.1315 13.6177 24.065 13.3937" fill="#999999"></path><path id="Vector_2" d="M43.3552 13.7586C44.3136 13.5667 45.2906 13.4835 46.2676 13.4963C46.6658 13.4899 47.0579 13.4963 47.4561 13.5347C48.1718 13.5731 48.2464 13.829 48.2464 15.0127C48.2464 20.3039 48.1718 24.6354 47.8171 29.6004C47.7113 31.1167 47.6739 31.635 45.8755 31.635C45.2159 31.635 44.5563 31.5966 43.8966 31.5198C42.4218 31.3727 42.1729 30.7776 42.0982 29.562C41.9862 27.7897 41.9551 26.043 41.9551 24.3027C41.9551 21.5259 42.0609 18.7492 42.2413 15.8636C42.2787 14.7183 42.3845 13.9058 43.3552 13.7522V13.7586Z" fill="#999999"></path><path id="Vector_3" d="M95.2341 13.1318C94.0953 12.8119 92.9254 12.6264 91.7431 12.5752C91.0959 12.5752 90.8096 12.8375 90.7349 13.7588C89.7331 13.3238 88.6565 13.0998 87.5737 13.0934C82.4274 13.0934 77.3184 18.0136 77.3184 24.3093C77.3184 28.7432 80.1249 31.9999 84.7298 31.9999C86.7149 31.9871 88.644 31.2833 90.1935 30.0037C90.1935 31.0786 90.3056 31.5968 91.631 31.776C91.9546 31.8143 92.3902 31.8143 92.8196 31.8143C93.3237 31.8271 93.8277 31.8015 94.3318 31.7376C95.5888 31.5904 95.9871 31.0722 96.1675 29.6262C96.6903 24.9492 96.9454 20.2465 96.9392 15.5439C96.9392 13.8036 96.4227 13.4709 95.2341 13.1382V13.1318ZM90.486 24.7188C89.3721 25.8257 88.1462 26.3503 86.9639 26.3503C84.9539 26.3503 83.8337 25.1667 83.8337 23.3112C83.8337 21.3534 85.4517 18.3911 88.3702 18.3911C89.1854 18.3911 89.9944 18.5702 90.7474 18.9093C90.71 20.8352 90.6043 22.8314 90.4922 24.7188H90.486Z" fill="#999999"></path><path id="Vector_4" d="M99.9969 5.43468C101.223 5.14677 102.474 4.99321 103.737 4.98682C104.459 4.98682 104.782 5.28113 104.782 6.43279C104.782 7.58445 104.82 8.76171 104.82 10.0221C104.82 16.8233 104.564 25.1217 104.21 29.4532C104.098 30.784 104.067 31.4494 102.517 31.603C102.231 31.635 101.945 31.6478 101.652 31.6414C101.279 31.6478 100.905 31.6414 100.538 31.603C99.0634 31.5262 98.7772 30.9376 98.6652 29.7539C98.4847 27.5722 98.3789 24.162 98.3789 20.3871C98.3789 16.2027 98.522 11.6153 98.9203 7.61644C99.0634 5.95293 99.2812 5.62023 99.9969 5.43468" fill="#999999"></path><path id="Vector_5" d="M107.738 13.7586C108.696 13.5731 109.673 13.4835 110.65 13.4963C111.048 13.4899 111.44 13.4963 111.839 13.5347C112.56 13.5731 112.635 13.829 112.635 15.0127C112.635 20.3039 112.56 24.6354 112.206 29.6004C112.094 31.1167 112.056 31.635 110.264 31.635C109.605 31.635 108.939 31.5966 108.285 31.5198C106.81 31.3727 106.562 30.7776 106.487 29.562C106.381 27.7897 106.344 26.043 106.344 24.3027C106.344 21.5259 106.456 18.7492 106.63 15.8636C106.667 14.7183 106.779 13.9058 107.744 13.7522L107.738 13.7586Z" fill="#999999"></path><path id="Vector_6" d="M131.377 13.1318C130.238 12.8119 129.068 12.6264 127.886 12.5752C127.238 12.5752 126.952 12.8375 126.878 13.7588C125.876 13.3238 124.799 13.0998 123.716 13.0934C118.57 13.0934 113.461 18.0136 113.461 24.3093C113.461 28.7432 116.267 31.9999 120.872 31.9999C122.858 31.9871 124.787 31.2833 126.336 30.0037C126.336 31.0786 126.448 31.5968 127.774 31.776C128.097 31.8143 128.527 31.8143 128.962 31.8143C129.466 31.8271 129.97 31.8015 130.474 31.7376C131.731 31.5904 132.13 31.0722 132.31 29.6262C132.827 24.9428 133.082 20.2337 133.069 15.5247C133.069 13.8036 132.571 13.4709 131.383 13.1382L131.377 13.1318ZM126.622 24.7188C125.508 25.8257 124.283 26.3503 123.1 26.3503C121.09 26.3503 119.97 25.1667 119.97 23.3112C119.97 21.3534 121.588 18.3911 124.5 18.3911C125.316 18.3911 126.125 18.5702 126.878 18.9093C126.834 20.8352 126.734 22.8314 126.622 24.7188V24.7188Z" fill="#999999"></path><path id="Vector_7" d="M70.8534 12.8056C73.6972 12.8056 76.4291 14.2516 76.4291 18.0968C76.3793 22.0125 76.1055 25.9153 75.6014 29.7926C75.4957 30.6435 75.2778 31.4945 74.0519 31.4945C73.0127 31.4561 71.9735 31.3345 70.9529 31.1234C70.1253 30.9379 69.8017 30.3812 69.8017 29.4919C69.8017 28.9032 70.2 25.6466 70.2 20.3874C70.2 19.2037 69.9448 18.4231 69.1918 18.4231C68.2584 18.4231 67.1818 18.8646 66.0991 19.7539C66.1364 20.6433 66.1364 21.603 66.1364 22.6779C66.1364 24.7893 66.0991 27.4893 65.9933 29.5623C65.9559 30.8163 65.595 31.4113 64.4064 31.4113H63.6161C62.9067 31.4241 62.1973 31.3985 61.4941 31.3345C60.5918 31.2194 60.1998 30.554 60.1624 29.5175C60.1251 26.5167 60.1997 23.7464 59.9446 20.6433C59.8699 19.498 59.5837 18.7942 58.8992 18.7942C57.8911 18.7942 56.9203 19.3509 56.0926 20.0546C56.13 23.2025 56.2731 26.2352 56.5593 29.2743C56.5967 29.5303 56.6216 29.7926 56.634 30.0549C56.634 30.9059 56.2731 31.3473 54.7236 31.4241C54.4 31.4625 53.9706 31.4625 53.535 31.4625C53.0994 31.4625 52.7074 31.4625 52.3838 31.4241C50.909 31.3345 50.6165 30.7459 50.4733 29.5623C50.0564 25.749 49.8386 21.9229 49.8262 18.084C49.8262 17.1947 49.8262 16.2734 49.8635 15.384C49.9008 14.2388 49.9382 13.4198 50.8716 13.1959C51.9855 12.9016 54.1449 12.7544 55.3334 12.7544C56.0491 12.7544 56.2358 13.1255 56.2358 13.7141C56.2358 14.0084 56.1984 14.3027 56.1611 14.6802C57.3123 13.7141 58.9676 13.0167 60.3367 13.0167C62.5271 13.0167 64.0766 13.4198 65.3025 15.4224C66.8894 13.6501 68.8309 12.7928 70.8471 12.7928L70.8534 12.8056Z" fill="#999999"></path><path id="Vector_8" d="M18.4632 10.7705C18.1085 9.8684 18.9299 10.1819 18.6499 6.81009C18.6064 5.86317 18.401 4.92265 18.0587 4.03971C18.3699 3.22715 18.5317 3.18236 19.4589 2.78568C23.734 0.955814 14.2939 -2.33282 13.6778 2.57454C13.0742 2.75368 12.4581 2.88805 11.8358 2.97122C11.0393 2.97122 10.2365 3.02881 9.45246 3.16317C9.18488 2.3634 8.63104 1.698 7.90296 1.30131C5.60049 -0.0870792 0.043431 4.93545 5.02798 5.17218C5.25822 5.17218 3.59049 7.78901 4.84129 11.4103C5.24578 12.626 1.53693 19.5487 1.05154 25.2687C0.815072 28.0966 0.640834 31.622 3.37891 31.622C4.90975 31.622 6.41569 31.7116 7.91541 31.59C8.32612 31.5644 8.72438 31.3981 9.03553 31.1229C9.3529 30.8478 9.5707 30.4703 9.66404 30.0545C9.81962 29.4147 9.88185 28.7556 9.84451 28.0966C9.80717 27.6616 9.33423 26.4651 8.99819 26.1964C8.83017 26.062 8.66838 25.9149 8.52525 25.7549C8.23277 25.4222 8.0772 24.9808 8.09587 24.5265C8.0772 24.2194 8.14565 23.9123 8.28256 23.6435C8.41946 23.3684 8.63104 23.1445 8.87996 22.9845C9.63915 22.5559 10.0934 22.7542 11.3753 23.4324C12.6261 23.5988 13.7152 22.8182 14.0512 22.8118C14.2254 22.8118 14.3934 22.8566 14.549 22.9334C14.7046 23.0101 14.8415 23.1189 14.9535 23.2597C15.2024 23.5732 15.3393 23.9635 15.3331 24.3601C15.3393 24.7632 15.2149 25.1599 14.9722 25.4798C14.7233 25.7869 14.4495 26.0748 14.1508 26.3244C13.7214 26.6827 13.3853 27.1369 13.1675 27.6616C12.9497 28.1798 12.8564 28.7492 12.9 29.3123C12.9186 29.581 12.956 29.8497 13.0057 30.112C13.0866 30.5407 13.3044 30.931 13.6218 31.2253C13.9392 31.5196 14.3437 31.6924 14.7668 31.7244C16.4719 31.8395 20.2679 32.4282 21.6058 30.5215C22.9375 28.6149 21.4004 18.2627 18.4695 10.7705H18.4632ZM13.4973 18.2499C12.9808 18.6978 12.3212 18.9217 11.6492 18.8897C11.3691 18.8897 11.0891 18.8642 10.8153 18.813C10.361 18.7618 9.93163 18.5762 9.58315 18.2755C9.22844 17.9748 8.9733 17.5781 8.83017 17.1367C8.8115 17.0599 8.81151 16.9831 8.82395 16.9063C8.8364 16.8295 8.86129 16.7528 8.90485 16.6888C8.94841 16.6248 8.99819 16.5672 9.06042 16.5224C9.12265 16.4777 9.1911 16.4457 9.26578 16.4265C9.41513 16.3881 9.5707 16.4137 9.70138 16.4968C9.83206 16.58 9.9254 16.708 9.96274 16.8615C10.0436 17.0855 10.1868 17.2774 10.3735 17.4246C10.5601 17.5653 10.7779 17.6549 11.0144 17.6677C11.8047 17.8021 12.3835 17.7061 12.7382 17.3926C13.1862 16.9831 13.2298 16.2089 13.1924 15.6459C13.18 15.4859 13.236 15.3324 13.3356 15.2172C13.4351 15.1021 13.5782 15.0253 13.7276 15.0189C13.8832 15.0061 14.0325 15.0573 14.1445 15.166C14.2565 15.2684 14.3312 15.4156 14.3374 15.5755C14.4121 16.7464 14.1321 17.6805 13.5036 18.2563L13.4973 18.2499ZM16.3412 9.54209C16.3039 9.61247 16.2541 9.67645 16.1981 9.72124C16.1421 9.77243 16.0736 9.81081 15.999 9.83001C15.9243 9.8556 15.8496 9.862 15.7749 9.8492C15.7003 9.8428 15.6256 9.81721 15.5571 9.77882C14.2441 9.06223 12.1968 8.30086 9.88184 8.76152C8.80528 9.03024 7.80962 9.58688 7.00686 10.3738C6.95085 10.4314 6.88863 10.4698 6.81395 10.5018C6.7455 10.5274 6.6646 10.5466 6.58993 10.5402C6.51525 10.5402 6.44058 10.521 6.3659 10.489C6.29123 10.457 6.23522 10.4122 6.17922 10.3547C6.07343 10.2395 6.01742 10.0923 6.02365 9.93877C6.02365 9.78522 6.08587 9.63806 6.19789 9.5293C7.16244 8.58237 8.35101 7.92337 9.64538 7.60986C12.2963 7.08521 14.6175 7.93617 16.0985 8.74233C16.167 8.78072 16.223 8.8255 16.2728 8.88948C16.3226 8.94707 16.3599 9.01745 16.3786 9.09422C16.4034 9.171 16.4097 9.24778 16.4034 9.32456C16.3972 9.40133 16.3723 9.47811 16.3412 9.54849V9.54209Z" fill="#999999"></path><path id="Vector_9" d="M45.6564 4.63428H44.7728C43.9265 4.63428 43.1113 4.97978 42.5139 5.60039C41.9165 6.21461 41.5742 7.05277 41.5742 7.92931V8.54993C41.5742 9.42007 41.9165 10.2582 42.5139 10.8724C43.1113 11.4867 43.9265 11.8322 44.7728 11.8322H45.6564C46.5028 11.8322 47.318 11.4867 47.9216 10.866C48.519 10.2518 48.8612 9.41367 48.8612 8.53713V7.91652C48.8612 7.04637 48.519 6.20821 47.9216 5.594C47.3242 4.97978 46.509 4.63428 45.6627 4.63428H45.6564ZM45.9427 6.39376C45.9427 6.45774 45.9178 6.52172 45.8867 6.57931C45.8556 6.63689 45.8182 6.68807 45.7685 6.73286C45.7187 6.77765 45.6627 6.80324 45.6004 6.82244C45.5382 6.84163 45.476 6.84803 45.4137 6.84163C45.0404 6.80964 44.667 6.90561 44.3558 7.11675C44.0447 7.32789 43.8082 7.6414 43.69 8.00609C43.6589 8.10206 43.5967 8.18523 43.5095 8.24282C43.4286 8.3004 43.3291 8.33239 43.2295 8.33239C43.1486 8.33239 43.0739 8.3132 43.0055 8.27481C42.937 8.23642 42.8748 8.18524 42.8312 8.11486C42.7877 8.05087 42.7566 7.9741 42.7441 7.89092C42.7317 7.80775 42.7441 7.73097 42.769 7.65419C42.9619 7.08476 43.3353 6.5921 43.8331 6.2658C44.3247 5.9331 44.9159 5.78594 45.5009 5.83713C45.5693 5.83713 45.6315 5.85632 45.6875 5.88831C45.7436 5.9203 45.7996 5.95869 45.8431 6.00987C45.8867 6.06106 45.9178 6.11864 45.9365 6.18902C45.9551 6.253 45.9614 6.32338 45.9551 6.38737H45.9427V6.39376Z" fill="#999999"></path><path id="Vector_10" d="M110.116 4.63428H109.232C108.386 4.63428 107.571 4.97978 106.967 5.60039C106.37 6.21461 106.027 7.05277 106.027 7.92931V8.54993C106.027 9.42007 106.37 10.2582 106.967 10.8724C107.564 11.4867 108.38 11.8322 109.226 11.8322H110.11C110.533 11.8322 110.95 11.749 111.335 11.589C111.721 11.4291 112.076 11.186 112.375 10.8788C112.673 10.5717 112.91 10.2134 113.072 9.81036C113.233 9.41368 113.314 8.985 113.314 8.54993V7.92931C113.314 7.49424 113.233 7.06556 113.072 6.66888C112.91 6.2658 112.673 5.9075 112.375 5.60039C112.076 5.29329 111.721 5.05016 111.335 4.8902C110.943 4.72385 110.527 4.64068 110.11 4.64068L110.116 4.63428ZM110.402 6.39376C110.39 6.52172 110.327 6.64329 110.228 6.72647C110.128 6.80964 110.004 6.85443 109.879 6.84163C109.506 6.80964 109.133 6.90561 108.821 7.11675C108.51 7.32789 108.274 7.6414 108.156 8.00609C108.118 8.10206 108.056 8.18523 107.975 8.24282C107.894 8.3004 107.795 8.33239 107.695 8.33239C107.639 8.33239 107.577 8.3196 107.527 8.3004C107.465 8.27481 107.409 8.24282 107.365 8.19803C107.315 8.15324 107.278 8.10206 107.253 8.03808C107.228 7.98049 107.21 7.91652 107.21 7.84614C107.21 7.78215 107.216 7.71177 107.241 7.65419C107.434 7.08476 107.807 6.5921 108.305 6.2658C108.797 5.9331 109.388 5.78594 109.973 5.83713C110.041 5.83713 110.103 5.86272 110.159 5.89471C110.215 5.9267 110.271 5.96509 110.309 6.01627C110.352 6.06746 110.383 6.12504 110.402 6.18902C110.421 6.253 110.427 6.32338 110.421 6.38737H110.408L110.402 6.39376Z" fill="#999999"></path></g></svg>