<svg xmlns="http://www.w3.org/2000/svg" width="266" height="37" viewBox="0 0 266 37" fill="none"><mask id="mask0_4949_1170" style="mask-type:luminance" maskUnits="userSpaceOnUse" x="64" y="0" width="202" height="29"><path d="M104.401 9.6V18.4C104.401 22.8 101.601 26 97.5011 26.1C94.0011 26.1 92.3011 23.8 92.3011 20.2V9.6H89.3011V21C89.3011 25.8 92.1011 28.8 96.8011 28.8C100.401 28.8 102.601 27.7 104.401 26V28.7H107.401V9.6H104.401ZM136.301 8.5V28.6H139.101V8.5H136.301ZM67.5011 19.6C67.2011 17 67.8011 14.7 69.8011 12.9C72.0011 10.9 74.7011 10.6 77.4011 11.6C80.0011 12.6 81.4011 14.6 81.9011 17.3C82.0011 17.7 82.0011 18.2 82.0011 18.5V18.7C81.9011 21.7 80.8011 24.1 78.0011 25.4C76.9011 25.9 75.8011 26.2 74.6011 26.2C71.3011 26.2 67.9011 24 67.5011 19.6ZM73.3011 8.5C70.8011 8.8 68.7011 9.7 67.0011 11.6C64.9011 13.9 64.3011 16.6 64.5011 19.6C64.7011 22 65.5011 24.1 67.2011 25.9C70.3011 29.1 75.8011 29.8 79.8011 27.7C80.6011 27.2 81.3011 26.7 82.0011 26.1V28.7H85.0011V18.6C85.0011 18.1 84.9011 17.6 84.9011 17C84.5011 13.9 83.0011 11.5 80.3011 9.9C78.6011 8.9 76.8011 8.5 74.9011 8.5C74.3011 8.4 73.8011 8.5 73.3011 8.5ZM187.701 19.4C187.401 16.8 188.001 14.5 190.001 12.7C192.201 10.7 194.901 10.4 197.601 11.4C200.201 12.4 201.601 14.4 202.101 17.1C202.201 17.5 202.201 18 202.201 18.3C202.101 21.3 201.001 23.8 198.201 25.2C197.101 25.7 196.001 26 194.801 26C191.501 25.9 188.101 23.7 187.701 19.4ZM193.501 8.3C191.001 8.6 188.901 9.5 187.201 11.4C185.101 13.7 184.501 16.4 184.701 19.4C184.901 21.8 185.701 23.9 187.401 25.7C190.501 28.9 196.001 29.6 200.001 27.5C203.501 25.6 205.001 22.4 205.101 18.4C205.101 17.9 205.001 17.4 205.001 16.8C204.601 13.7 203.101 11.3 200.401 9.7C198.701 8.7 196.901 8.3 195.001 8.3C194.501 8.2 194.001 8.2 193.501 8.3ZM251.001 13.7C251.001 20.8 262.201 18.3 262.101 23.2C262.101 25.2 260.201 26.1 257.801 26.1C255.401 26.1 252.801 25.1 251.101 23.5L250.001 25.7C251.901 27.5 254.801 28.5 257.701 28.5C261.601 28.5 265.101 26.7 265.101 22.8C265.101 15.6 253.901 17.9 253.901 13.4C253.901 11.5 255.601 10.7 257.901 10.7C259.801 10.7 261.801 11.3 263.401 12.3L264.501 10C262.801 8.9 260.501 8.2 258.101 8.2C254.301 8.2 251.001 9.8 251.001 13.7ZM145.501 19.4C145.201 16.9 145.801 14.6 147.801 12.8C150.001 10.8 152.701 10.4 155.501 11.4C158.201 12.3 159.601 14.4 160.001 17.2C160.101 17.6 160.101 18.1 160.101 18.4C160.001 21.4 159.001 23.8 156.301 25.2C155.201 25.8 154.001 26.1 152.801 26.1C149.301 26 145.901 23.7 145.501 19.4ZM151.301 8.3C148.801 8.6 146.701 9.5 145.001 11.4C143.001 13.7 142.301 16.4 142.501 19.3C142.701 21.8 143.601 24 145.401 25.7C147.101 27.4 149.301 28.3 151.701 28.5C154.501 28.7 157.101 28.2 159.301 26.4C161.901 24.3 162.901 21.5 163.001 18.1C163.001 17.8 163.001 17.2 162.901 16.7C162.501 13.6 161.001 11.1 158.201 9.5C156.501 8.5 154.701 8.1 152.901 8.1C152.301 8.2 151.801 8.2 151.301 8.3ZM239.401 10.7C243.401 10.7 246.001 13.3 246.201 17.2H232.301C232.701 13.3 235.401 10.7 239.401 10.7ZM229.301 18.5C229.301 24.6 233.401 28.8 239.401 28.8C242.801 28.8 245.701 27.6 247.601 25.4L245.901 23.7C244.301 25.4 242.101 26.3 239.601 26.3C235.601 26.3 232.701 23.7 232.201 19.6H248.901C249.201 12.7 246.001 8.2 239.401 8.2C233.501 8.2 229.301 12.4 229.301 18.5ZM164.801 18.3C164.801 24.3 168.901 28.4 174.701 28.4C178.201 28.4 180.901 27.1 182.701 24.9L181.001 23.1C179.601 24.8 177.401 25.7 174.801 25.7C170.601 25.7 167.701 22.6 167.701 18.2C167.701 13.8 170.701 10.7 174.801 10.7C177.201 10.7 179.301 11.6 180.801 13.1L182.401 11C180.601 9.1 177.901 8 174.701 8C169.001 8.1 164.801 12.3 164.801 18.3ZM135.701 2.6C135.701 3.8 136.501 4.6 137.601 4.6C138.801 4.6 139.601 3.8 139.601 2.6C139.601 1.4 138.801 0.6 137.701 0.6C136.501 0.6 135.701 1.4 135.701 2.6ZM113.401 19.4C113.101 16.8 113.701 14.5 115.701 12.7C117.901 10.7 120.601 10.4 123.301 11.4C125.901 12.4 127.301 14.4 127.801 17.1C127.901 17.5 127.901 17.9 127.901 18.2V18.4C127.801 21.4 126.701 23.8 123.901 25.1C122.801 25.6 121.701 25.9 120.501 25.9C117.201 25.9 113.901 23.7 113.401 19.4ZM127.901 0V10.9C127.401 10.4 126.801 10 126.101 9.6C123.901 8.3 121.601 8 119.101 8.3C116.601 8.6 114.501 9.5 112.801 11.4C110.701 13.7 110.101 16.4 110.301 19.4C110.501 21.8 111.301 23.9 113.001 25.7C116.101 28.9 121.601 29.6 125.601 27.5C126.401 27 127.101 26.5 127.801 25.9V28.5H130.801V0H127.901ZM209.801 19.4C209.501 16.8 210.101 14.5 212.101 12.7C214.301 10.7 217.001 10.4 219.701 11.4C222.301 12.4 223.701 14.4 224.201 17.1C224.301 17.5 224.301 17.9 224.301 18.2V18.4C224.201 21.4 223.101 23.8 220.301 25.1C219.201 25.6 218.101 25.9 216.901 25.9C213.501 25.9 210.201 23.7 209.801 19.4ZM224.301 0V10.9C223.801 10.4 223.201 10 222.501 9.6C220.301 8.3 218.001 8 215.501 8.3C213.001 8.6 210.901 9.5 209.201 11.4C207.101 13.7 206.501 16.4 206.701 19.4C206.901 21.8 207.701 23.9 209.401 25.7C212.501 28.9 218.001 29.6 222.001 27.5C222.801 27 223.501 26.5 224.201 25.9V28.5H227.201V0H224.301Z" fill="white"></path></mask><g mask="url(#mask0_4949_1170)"><path d="M265.001 0H64.3008V29.8H265.001V0Z" fill="#999999"></path></g><mask id="mask1_4949_1170" style="mask-type:luminance" maskUnits="userSpaceOnUse" x="32" y="0" width="29" height="37"><path d="M43.2984 28.0002C43.2984 28.0002 43.1984 30.2002 43.8984 32.7002C44.3984 34.8002 45.3984 36.8002 45.3984 36.8002C45.3984 36.8002 55.8984 37.4002 60.3984 29.0002L53.4984 24.4002C53.5984 24.4002 50.7984 30.5002 43.2984 28.0002ZM32.8984 5.30019C32.9984 5.40019 36.5984 8.4002 38.1984 14.7002C38.9984 11.5002 42.2984 9.50019 45.9984 9.50019C51.4984 9.50019 53.3984 13.3002 53.3984 13.3002L60.1984 8.3002C55.9984 1.8002 49.6984 0.700195 46.1984 0.700195C37.4984 0.700195 32.8984 5.30019 32.8984 5.30019Z" fill="white"></path></mask><g mask="url(#mask1_4949_1170)"><path d="M36.6977 47.0001L73.2977 32.3001L56.5977 -8.8999L20.0977 5.8001L36.6977 47.0001Z" fill="#999999"></path></g><mask id="mask2_4949_1170" style="mask-type:luminance" maskUnits="userSpaceOnUse" x="0" y="1" width="45" height="36"><path d="M0 19.6C0 36.2 19.8 41.5 31.4 32.5C28.9 29.8 27.3 26.6 26.7 22.9C23.8 30.5 14.2 30.5 11.4 24.6C8.4 18.5 10.3 9.8 18.9 9.8C25 9.8 27.3 14.5 27.3 18.5C27.3 28.4 34 36.8 44.2 36.8C43.8 35.7 43.1 34.3 42.8 32.4C42.3 30.1 42.4 27.8 42.4 27.8C39.1 26.1 37.7 22.2 37.7 19C37.7 9 29.9 1 19 1C8.1 1 0 6.8 0 19.6Z" fill="white"></path></mask><g mask="url(#mask2_4949_1170)"><path d="M44 1H0V41.6H44V1Z" fill="#999999"></path></g></svg>