<svg xmlns="http://www.w3.org/2000/svg" width="178" height="38" viewBox="0 0 178 38" fill="none"><g id="uuid-54d83131-9aad-494e-a261-b06d6c928096" clip-path="url(#clip0_4249_1844)"><g id="Layer 2"><g id="Layer 1-2"><path id="Vector" d="M51.1306 7.63344C48.9569 7.67343 46.8922 8.57853 45.3873 10.1452V0.603405H41.6142V26.9351H45.2892V24.7542C46.7904 26.4044 48.9096 27.3532 51.1379 27.3822C56.4158 27.3822 60.5524 23.0457 60.5524 17.5133C60.5524 11.9809 56.4086 7.63344 51.1306 7.63344ZM51.1306 23.8781C48.0191 23.8781 45.3873 20.992 45.3873 17.5751C45.3873 14.1582 47.9645 11.1993 51.1306 11.1993C54.2967 11.1993 56.7684 13.9983 56.7684 17.5751C56.7684 21.1519 54.2385 23.8636 51.1306 23.8636V23.8781ZM78.6582 10.247C77.1534 8.60398 75.0378 7.65889 72.8096 7.63344C67.5134 7.63344 63.3586 11.9954 63.3586 17.5387C63.3586 23.0821 67.5098 27.4077 72.8096 27.4077C75.0378 27.3822 77.157 26.4299 78.6582 24.7796V26.9606H82.3296V8.07691H78.6582V10.247ZM72.8096 23.7582C69.6835 23.7582 67.139 20.9774 67.139 17.5787C67.139 14.18 69.6835 11.272 72.8096 11.272C75.9356 11.272 78.5528 14.1582 78.5528 17.5787C78.5528 20.9193 75.9247 23.7582 72.8096 23.7582ZM96.0007 7.63344C93.827 7.67343 91.7623 8.57853 90.2574 10.1452V0.603405H86.4843V26.9351H90.152V24.7542C91.6533 26.4044 93.7725 27.3532 96.0007 27.3822C101.279 27.3822 105.415 23.0457 105.415 17.5133C105.415 11.9809 101.268 7.63344 96.0007 7.63344ZM96.0007 23.8781C92.8892 23.8781 90.2574 20.992 90.2574 17.5751C90.2574 14.1582 92.8346 11.1993 96.0007 11.1993C99.1668 11.1993 101.631 13.9837 101.631 17.5606C101.631 21.1374 99.1086 23.8636 96.0007 23.8636V23.8781ZM119.992 8.09145H124.037L115.739 30.1703C114.528 33.3981 112.671 34.8448 109.639 34.8448C109.243 34.8448 108.847 34.8194 108.45 34.7758L108.087 34.7394V31.199L108.512 31.2317C110.617 31.388 111.482 30.8246 112.216 28.8253L113.111 26.4372L106.055 8.07691H110.137L115.117 21.6935L119.992 8.09145ZM139.766 10.247C138.265 8.60761 136.153 7.66252 133.928 7.63344C128.628 7.63344 124.477 11.9954 124.477 17.5387C124.477 23.0821 128.628 27.4077 133.928 27.4077C136.156 27.3822 138.275 26.4299 139.773 24.7796V26.9606H143.433V8.07691H139.762V10.247H139.766ZM133.928 23.7582C130.798 23.7582 128.254 20.9774 128.254 17.5787C128.254 14.18 130.798 11.272 133.928 11.272C137.058 11.272 139.671 14.1582 139.671 17.5787C139.671 20.9992 137.04 23.7582 133.928 23.7582ZM156.988 7.65889L157.352 7.69887V11.4174L156.934 11.3956C155.28 11.3011 153.84 11.7591 152.881 12.6533C152.008 13.4821 151.565 14.6344 151.565 16.0848V26.9351H147.774V8.07691H151.43V9.45093C152.924 8.05873 154.96 7.4008 156.988 7.65889ZM177.788 26.9242H173.218L167.192 17.964L164.178 20.872V26.9351H160.405V0.603405H164.178V15.6304L171.866 8.07691H177.391L169.943 15.296L177.788 26.9242ZM11.3058 26.9242C5.24998 26.9061 0.324589 22.0497 0.215539 15.9939C0.182825 13.0096 1.30603 9.19284 3.12352 6.03405C5.3045 2.23551 8.21248 0.0363497 11.1205 0H11.1786C14.1084 0 16.9946 2.07557 19.2664 5.8414C21.1603 8.96021 22.3598 12.7478 22.3925 15.7249C22.4579 21.8462 17.5544 26.8661 11.4331 26.9424L11.3058 26.9242ZM11.1859 3.75493H11.1495C9.66647 3.79128 7.84898 5.37976 6.39499 7.91697C4.941 10.4542 3.97774 13.6711 4.00682 15.943C4.06498 19.9342 7.30374 23.1439 11.2949 23.1657H11.4003C15.4315 23.1075 18.6558 19.8033 18.6121 15.7721C18.5831 13.5003 17.5471 10.2979 16.0313 7.80065C14.5155 5.30342 12.6653 3.7731 11.1859 3.7731V3.75493ZM11.3022 37.9818C5.18455 37.9746 0.222809 33.0165 0.215539 26.8988H3.98864C3.89777 30.9372 7.10018 34.2851 11.1386 34.3723C15.1771 34.4632 18.5249 31.2608 18.6121 27.2223C18.6121 27.1133 18.6121 27.0042 18.6121 26.8952H22.3889C22.3889 33.0201 17.4271 37.9891 11.3022 37.9964V37.9782V37.9818Z" fill="#999999"></path></g></g></g><defs><clipPath id="clip0_4249_1844"><rect width="177.572" height="38" fill="white" transform="translate(0.214844)"></rect></clipPath></defs></svg>