<svg xmlns="http://www.w3.org/2000/svg" id="uuid-0bc4714a-570a-4488-90d9-a95e8d991e5b" data-name="uuid-452c9df9-2cdc-4f3d-975f-7dc70db5874a" viewBox="0 0 127.47 28"><defs><style>      .uuid-1634a41a-6db3-410a-a918-cf167086dcd4 {        fill: #999;      }    </style></defs><path class="uuid-1634a41a-6db3-410a-a918-cf167086dcd4" d="M19.83,1l-3.72,3.74.86.86,3.72-3.74-.86-.86Z"></path><path class="uuid-1634a41a-6db3-410a-a918-cf167086dcd4" d="M12.74,8.14l-3.72,3.74.86.86,3.72-3.74-.86-.86Z"></path><path class="uuid-1634a41a-6db3-410a-a918-cf167086dcd4" d="M16.97,8.14l-.86.86,3.72,3.74.86-.86-3.72-3.74Z"></path><path class="uuid-1634a41a-6db3-410a-a918-cf167086dcd4" d="M9.88,1l-.86.86,3.72,3.74.86-.86-3.72-3.74Z"></path><path class="uuid-1634a41a-6db3-410a-a918-cf167086dcd4" d="M26.93,8.13l-3.72,3.74.86.86,3.72-3.74-.86-.86Z"></path><path class="uuid-1634a41a-6db3-410a-a918-cf167086dcd4" d="M19.83,15.27l-3.72,3.74.86.86,3.72-3.74-.86-.86Z"></path><path class="uuid-1634a41a-6db3-410a-a918-cf167086dcd4" d="M24.06,15.27l-.86.86,3.72,3.74.86-.86-3.72-3.74Z"></path><path class="uuid-1634a41a-6db3-410a-a918-cf167086dcd4" d="M16.97,8.14l-.86.86,3.72,3.74.86-.86-3.72-3.74Z"></path><path class="uuid-1634a41a-6db3-410a-a918-cf167086dcd4" d="M12.74,8.14l-3.72,3.74.86.86,3.72-3.74-.86-.86Z"></path><path class="uuid-1634a41a-6db3-410a-a918-cf167086dcd4" d="M5.65,15.27l-3.72,3.74.86.86,3.72-3.74-.86-.86Z"></path><path class="uuid-1634a41a-6db3-410a-a918-cf167086dcd4" d="M9.88,15.26l-.86.86,3.72,3.74.86-.86-3.72-3.74Z"></path><path class="uuid-1634a41a-6db3-410a-a918-cf167086dcd4" d="M2.78,8.13l-.86.86,3.72,3.74.86-.86-3.72-3.74Z"></path><path class="uuid-1634a41a-6db3-410a-a918-cf167086dcd4" d="M19.83,15.27l-3.72,3.74.86.86,3.72-3.74-.86-.86Z"></path><path class="uuid-1634a41a-6db3-410a-a918-cf167086dcd4" d="M12.74,22.4l-3.72,3.74.86.86,3.72-3.74-.86-.86Z"></path><path class="uuid-1634a41a-6db3-410a-a918-cf167086dcd4" d="M16.97,22.39l-.86.86,3.72,3.74.86-.86-3.72-3.74Z"></path><path class="uuid-1634a41a-6db3-410a-a918-cf167086dcd4" d="M9.88,15.26l-.86.86,3.72,3.74.86-.86-3.72-3.74Z"></path><path class="uuid-1634a41a-6db3-410a-a918-cf167086dcd4" d="M46.38,9.28c-1.19-1.2-2.69-1.8-4.52-1.8h-5.1v12.77h5.1c1.83,0,3.33-.6,4.52-1.8,1.19-1.2,1.78-2.72,1.78-4.55v-.06c0-1.83-.6-3.35-1.78-4.55M46.3,13.89c0,1.34-.42,2.43-1.25,3.27-.84.85-1.9,1.27-3.21,1.27h-3.25v-8.45l-.83-.7h4.08c1.31,0,2.37.42,3.21,1.27s1.25,1.94,1.25,3.27v.06h0Z"></path><path class="uuid-1634a41a-6db3-410a-a918-cf167086dcd4" d="M57.96,10.82v1.37h-.07c-.8-1.08-1.92-1.63-3.36-1.64-1.39-.01-2.54.44-3.43,1.38-.9.93-1.35,2.13-1.35,3.61s.46,2.68,1.36,3.63c.9.94,2.04,1.4,3.41,1.37,1.45-.01,2.58-.59,3.38-1.73h.07v1.47h1.78v-9.45h-1.78ZM57.06,17.84c-.59.62-1.35.93-2.28.93s-1.74-.31-2.34-.93c-.59-.62-.89-1.39-.89-2.31s.3-1.69.89-2.31c.6-.62,1.37-.93,2.34-.93s1.7.31,2.28.93c.59.62.88,1.39.88,2.31s-.29,1.69-.88,2.31Z"></path><path class="uuid-1634a41a-6db3-410a-a918-cf167086dcd4" d="M67.54,10.82h-2.46v-2.43l-1.81.36v2.07h-1.71v1.76h1.71v5.33c0,.76.21,1.35.62,1.76.41.41,1,.61,1.77.61h1.87v-1.78h-2.46v-5.22l-.83-.7h3.29v-1.76h0Z"></path><path class="uuid-1634a41a-6db3-410a-a918-cf167086dcd4" d="M114.65,10.82h-2.46v-2.43l-1.81.36v2.07h-1.71v1.76h1.71v5.33c0,.76.21,1.35.62,1.76.41.41,1,.61,1.77.61h1.87v-1.78h-2.46v-5.22l-.83-.7h3.29v-1.76h0Z"></path><path class="uuid-1634a41a-6db3-410a-a918-cf167086dcd4" d="M94.11,11.63c-.63-.71-1.48-1.07-2.57-1.07-1.44,0-2.49.61-3.15,1.83h-.06c-.61-1.22-1.6-1.83-2.98-1.83-1.2,0-2.13.54-2.77,1.6h-.07v-1.35h-1.73v9.45h1.81v-4.85c0-.89.22-1.63.64-2.21.43-.58.99-.89,1.69-.9.66-.01,1.17.19,1.55.62.37.43.56,1,.56,1.73v5.61h1.81v-5c0-.98.24-1.72.7-2.21.47-.5,1.02-.75,1.64-.75s1.15.21,1.53.63c.37.42.56.99.56,1.72v5.61h1.81v-5.8c0-1.17-.31-2.11-.94-2.83"></path><path class="uuid-1634a41a-6db3-410a-a918-cf167086dcd4" d="M105.07,10.82v1.37h-.07c-.8-1.08-1.92-1.63-3.36-1.64-1.39-.01-2.54.44-3.43,1.38-.9.93-1.35,2.13-1.35,3.61s.46,2.68,1.36,3.63c.9.94,2.04,1.4,3.41,1.37,1.46-.01,2.58-.59,3.38-1.73h.07v1.47h1.79v-9.45h-1.79ZM104.17,17.84c-.59.62-1.35.93-2.29.93s-1.74-.31-2.33-.93-.89-1.39-.89-2.31.3-1.69.89-2.31c.6-.62,1.37-.93,2.33-.93s1.7.31,2.29.93c.59.62.88,1.39.88,2.31s-.29,1.69-.88,2.31Z"></path><path class="uuid-1634a41a-6db3-410a-a918-cf167086dcd4" d="M124.36,12.17c-.9-1.08-2.13-1.62-3.66-1.62-1.42,0-2.58.48-3.49,1.44-.91.96-1.37,2.15-1.37,3.56s.45,2.58,1.35,3.54c.9.96,2.08,1.44,3.55,1.44,1.1,0,2.06-.28,2.88-.86.82-.57,1.39-1.35,1.71-2.35h-1.88c-.22.44-.56.8-1.03,1.07-.47.27-1.01.4-1.61.4-.84,0-1.54-.25-2.11-.75-.57-.5-.89-1.12-.95-1.87h7.77c.12-1.59-.26-2.92-1.17-4.01M117.8,14.57c.14-.67.47-1.23.99-1.65.52-.43,1.14-.64,1.88-.64s1.38.21,1.91.63c.53.42.86.97,1,1.66h-5.77,0Z"></path><path class="uuid-1634a41a-6db3-410a-a918-cf167086dcd4" d="M73.33,20.53c.88,0,1.64-.25,2.32-.76.31-.25.54-.5.69-.75l.03-.05h.27v1.37h1.81v-9.52h-1.81v5.04c0,1.79-1.16,3.05-2.83,3.05s-2.45-.84-2.45-2.65v-5.43h-1.82v5.63c0,2.64,1.34,4.09,3.77,4.09"></path></svg>