<svg xmlns="http://www.w3.org/2000/svg" width="120" height="32" viewBox="0 0 120 32" fill="none"><g id="hazera"><g id="Vector"><path d="M99.0295 15.6388C96.87 15.6388 93.8205 17.6736 93.4036 18.3326L93.0239 18.9341L92.9244 18.2238C92.6568 16.3235 90.8271 15.6452 89.209 15.6452C88.9601 15.6452 88.705 15.6644 88.456 15.69C87.9893 18.1023 87.1429 20.1626 86.3214 22.1462C85.2883 24.6544 84.2241 27.2522 83.9316 30.5667C84.722 31.3985 86.2654 31.9488 87.815 31.9488C88.2817 31.9488 88.7298 31.8976 89.1593 31.8016C89.2962 31.2449 89.4331 30.6882 89.5638 30.1252C90.5221 26.0941 91.5117 21.9222 94.9718 20.2714L95.0714 20.2202L95.1772 20.2586C95.9178 20.5465 96.0921 21.3719 96.2414 22.1078C96.3161 22.4725 96.397 22.85 96.5401 23.1315C97.959 22.7732 99.3966 21.6791 100.255 20.3034C100.728 19.5483 101.226 18.3646 100.921 17.0593C100.697 16.0867 100.075 15.6196 99.0295 15.6196" fill="#999999" style="mix-blend-mode:multiply"></path></g><g id="Vector_2"><path d="M50.4244 31.5383C51.0529 31.4488 51.7437 31.404 52.5341 31.404C53.8348 31.404 55.2101 31.5255 56.5481 31.6407C57.8737 31.7559 59.1246 31.8647 60.3008 31.8647C62.5848 31.8647 63.985 31.4424 64.8314 30.489C65.5658 29.6699 65.8707 28.4414 65.7649 26.7394C65.6467 26.7778 65.5284 26.8162 65.4102 26.8546C63.6801 27.4177 61.7135 28.0575 59.5727 28.0575C58.8197 28.0575 58.0791 27.9743 57.3759 27.8144L56.7909 27.68L57.2887 27.3345C58.2036 26.6946 59.2304 26.0932 60.2261 25.5109C63.873 23.3738 67.6444 21.1663 67.8311 16.2522C67.1278 16.5017 66.3188 16.6233 65.3791 16.6233C63.9726 16.6233 62.479 16.3545 61.0352 16.0858C59.6972 15.8427 58.4401 15.6123 57.3385 15.6123C56.8904 15.6123 56.5108 15.6507 56.1623 15.7275C54.1957 16.169 53.0133 18.3637 53.2871 20.9999C53.5485 20.9487 53.8161 20.8975 54.0961 20.8399C55.5275 20.5584 57.1456 20.2321 58.7512 20.2321C59.5416 20.2321 60.2573 20.3089 60.9232 20.4624L61.5206 20.6032L61.004 20.9487C59.8963 21.6973 58.5458 22.2924 57.2452 22.8683C53.3929 24.5767 49.7522 26.1891 50.4244 31.5319" fill="#999999" style="mix-blend-mode:multiply"></path></g><g id="Vector_3"><path d="M43.7405 19.3177C42.5706 23.3424 41.077 27.3735 36.9011 28.666L36.5962 28.762L36.5651 28.442C36.0983 23.7967 39.1851 19.548 43.4543 18.9786L43.8526 18.9274L43.7405 19.3241M51.0094 18.6202C49.3291 16.6815 47.0638 15.6577 44.4376 15.6577C40.9338 15.6577 37.0754 17.4941 34.3682 20.4502C32.1651 22.8561 31.045 25.6523 31.2068 28.3205C31.3873 31.2574 33.5032 31.8781 35.2457 31.8781C37.399 31.8781 40.1435 30.8607 41.6246 29.5042L41.7864 29.357L41.9607 29.4914C42.1723 29.6578 42.3776 29.8305 42.5892 29.9969C43.8464 31.0271 45.035 31.9996 47.2132 31.9996C47.3376 31.9996 47.4621 31.9996 47.5928 31.9932C46.8149 26.8104 49.13 22.293 50.997 18.6522L51.0094 18.6202Z" fill="#999999" style="mix-blend-mode:multiply"></path></g><g id="Vector_4"><path d="M112.067 19.3177C110.897 23.3424 109.404 27.3735 105.228 28.666L104.923 28.762L104.892 28.442C104.425 23.7967 107.512 19.548 111.781 18.9786L112.179 18.9274L112.061 19.3241M119.33 18.6202C117.649 16.6815 115.384 15.6577 112.758 15.6577C109.254 15.6577 105.396 17.4941 102.689 20.4502C100.485 22.8561 99.3653 25.6523 99.5271 28.3205C99.7076 31.2574 101.823 31.8781 103.572 31.8781C105.726 31.8781 108.47 30.8607 109.945 29.5042L110.107 29.357L110.281 29.4914C110.493 29.6578 110.698 29.8305 110.91 29.9969C112.167 31.0271 113.355 31.9996 115.534 31.9996C115.658 31.9996 115.782 31.9996 115.913 31.9932C115.135 26.8104 117.45 22.293 119.317 18.6522L119.33 18.6202Z" fill="#999999" style="mix-blend-mode:multiply"></path></g><g id="Vector_5"><path d="M80.6615 18.7359C80.3877 22.076 77.7428 22.9846 75.1787 23.8612L74.6124 24.0531L74.9734 23.2021C75.8944 21.0586 77.0457 18.3904 79.7342 18.3904C79.9645 18.3904 80.201 18.4096 80.4437 18.448L80.6864 18.4864L80.6615 18.7359M81.6759 15.6582C81.0536 15.5366 80.4188 15.4727 79.7778 15.4727C76.6412 15.4727 73.3242 17.0211 70.9033 19.6189C68.7812 21.8968 67.6298 24.6354 67.7419 27.1372C67.941 31.5267 71.9551 32.0001 73.6665 32.0001C76.5914 32.0001 79.7965 30.7332 81.4519 28.916C82.2173 28.0778 82.6281 27.15 82.6467 26.2222C82.2111 26.3246 81.5888 26.6445 80.9416 26.9773C79.7716 27.5851 78.4398 28.2698 77.2449 28.2698C76.1247 28.2698 75.3156 27.6491 74.8489 26.4334L74.7431 26.1647L75.6891 25.8703C79.1804 24.7826 83.9661 23.2981 84.52 19.6317C84.8872 17.2003 83.0139 15.9206 81.6697 15.6518" fill="#999999" style="mix-blend-mode:multiply"></path></g><g id="Vector_6"><path d="M45.3958 6.14282C44.3627 4.53678 36.3968 7.44173 38.8613 8.83022C39.9192 9.42528 46.7462 8.24154 45.3958 6.14282Z" fill="#999999" style="mix-blend-mode:multiply"></path></g><g id="Vector_7"><path d="M19.6585 30.1121C20.3369 31.1743 22.067 31.8525 24.1082 31.8525C24.6559 31.8525 25.1911 31.8013 25.7076 31.7118C26.9585 25.8763 28.6326 20.1176 30.1324 15.7729C26.1619 17.2702 24.2452 18.4667 22.9569 19.0938C21.4633 23.9759 19.8888 29.3443 19.6523 30.1185" fill="#999999" style="mix-blend-mode:multiply"></path></g><g id="Vector_8"><path d="M39.3211 11.0316C39.1032 11.0124 38.4249 11.0892 38.4187 11.0956C21.0493 12.4649 13.6311 18.0188 13.6311 18.0188C13.6311 18.0188 15.106 13.6486 15.6599 12.2153C17.0975 8.49138 17.5145 4.53707 16.5001 2.69428C15.9773 1.7345 15.0501 0.87069 13.7432 0.525168C6.72945 -1.31762 2.60336 1.98404 1.07864 5.84877C0.400295 7.56359 0.574535 9.34239 1.57027 10.8524C2.64068 12.4841 3.63645 12.9512 5.57191 13.0919C4.9309 10.91 5.87061 8.36341 6.9099 6.76377C7.15884 6.37985 7.64425 5.86157 8.22302 5.58643C8.8578 5.2793 9.29345 5.22172 9.37436 5.22172C10.5692 5.13214 11.3534 5.59923 10.9302 7.23086C9.93446 11.0572 8.65868 14.4037 7.43268 17.8589C5.98887 21.9284 5.06158 25.2428 3.53686 30.0993C4.56372 31.347 7.15883 31.5326 9.27476 31.539C9.34322 31.0975 9.72909 29.6514 9.72909 29.6514C15.8902 17.3598 38.7174 11.7163 39.1157 11.6075C40.0927 11.3259 39.4642 11.0444 39.3148 11.038" fill="#999999" style="mix-blend-mode:multiply"></path></g><g id="Vector_9"><path d="M34.8551 4.27462C35.0418 3.96109 35.2347 3.65396 35.4277 3.34683C35.9068 2.5854 36.3611 1.86236 36.6661 1.03055C35.6641 0.76181 34.7182 0.627441 33.8594 0.627441C28.7998 0.627441 26.5532 5.54153 24.9164 10.686C24.7857 11.0891 24.6613 11.4922 24.5368 11.8889L24.375 12.3944C26.4349 11.8569 28.75 11.3642 31.3265 10.9739C32.2911 8.70883 33.5295 6.53971 34.8551 4.27462" fill="#999999" style="mix-blend-mode:multiply"></path></g></g></svg>