<svg xmlns="http://www.w3.org/2000/svg" width="156" height="46" viewBox="0 0 156 46" fill="none"><g id="iac"><g id="Group"><g id="Vector"><path d="M18.3014 5.47337L17.6133 6.6883L14.762 11.6317H0.517578L7.52201 23.8244L7.62118 23.9948L3.0931 33.9715C15.6856 18.881 35.0686 26.1302 42.29 11.61H42.0452L42.0204 11.6348H28.1293L21.4472 0L18.3014 5.47337ZM21.4658 8.50139L22.8729 10.9529H20.1021L21.4658 8.50139V8.50139ZM31.43 16.1102H34.9787C34.049 16.5658 33.0944 16.9687 32.1212 17.322L31.43 16.1102ZM17.1732 16.1102H25.7986L27.3049 18.7446C24.7882 19.3428 22.1786 19.7953 19.6465 20.2385C17.8613 20.536 16.0544 20.8614 14.294 21.224L17.1763 16.1071L17.1732 16.1102ZM8.15116 16.1102H11.5046L9.86508 19.0142L8.15116 16.1102Z" fill="#999999" style="mix-blend-mode:multiply"></path></g><g id="Vector_2"><path d="M43.3748 14.8615C39.1814 21.7792 29.7688 23.2668 21.1497 25.8455C5.73372 30.544 3.1737 37.2447 3.1582 37.2881C3.1923 37.2602 10.6368 31.2197 21.5123 28.5016C43.9203 23.3722 43.8831 14.0371 43.8831 14.0371L43.3717 14.8615H43.3748Z" fill="#999999" style="mix-blend-mode:multiply"></path></g><g id="Vector_3"><path d="M43.3736 19.126C39.1803 26.0436 29.7677 27.5313 21.1485 30.1099C5.73568 34.8116 3.17255 41.5092 3.16016 41.5557C3.19425 41.5278 10.6388 35.4872 21.5142 32.7691C43.9222 27.6398 43.885 18.3047 43.885 18.3047L43.3736 19.1291V19.126Z" fill="#999999" style="mix-blend-mode:multiply"></path></g><g id="Vector_4"><path d="M43.5514 23.5703C39.358 30.488 29.9454 31.9757 21.3263 34.5543C5.91341 39.2559 3.35029 45.9535 3.33789 46C3.37198 45.9721 10.8165 39.9316 21.692 37.2135C44.0999 32.0841 44.0627 22.749 44.0627 22.749L43.5514 23.5734V23.5703Z" fill="#999999" style="mix-blend-mode:multiply"></path></g></g><g id="Group_2"><g id="Vector_5"><path d="M114.852 12.4531H114.164V18.6269H114.852V12.4531Z" fill="#999999" style="mix-blend-mode:multiply"></path></g><g id="Vector_6"><path d="M118.97 13.6548C118.88 13.4503 118.732 13.2767 118.542 13.1589C118.353 13.0381 118.133 12.9792 117.913 12.9823C117.783 12.9761 117.653 12.9978 117.532 13.0412C117.411 13.0876 117.3 13.1558 117.204 13.2457C117.108 13.3356 117.033 13.4441 116.98 13.5618C116.928 13.6796 116.9 13.8098 116.897 13.94C116.897 14.473 117.442 14.7179 117.858 14.9038L118.264 15.0867C119.06 15.4369 119.751 15.8398 119.751 16.8192C119.767 17.3182 119.587 17.8048 119.258 18.1767C118.927 18.5486 118.465 18.778 117.969 18.8183C117.473 18.8585 116.98 18.7067 116.596 18.3937C116.209 18.0806 115.958 17.6312 115.893 17.1353L116.562 16.9463C116.593 17.2562 116.732 17.5413 116.962 17.7521C117.188 17.9628 117.486 18.0837 117.792 18.0899C118.118 18.0961 118.431 17.9752 118.666 17.7521C118.902 17.5289 119.041 17.219 119.054 16.8936C119.054 16.1776 118.493 15.9297 117.923 15.6694L117.548 15.5051C116.832 15.1766 116.212 14.8078 116.212 13.9245C116.212 12.9668 117.021 12.3531 117.932 12.3531C118.257 12.35 118.58 12.4368 118.862 12.6042C119.144 12.7746 119.37 13.0164 119.522 13.3077L118.979 13.6517L118.97 13.6548Z" fill="#999999" style="mix-blend-mode:multiply"></path></g><g id="Vector_7"><path d="M121.499 18.6235H120.814V12.4497H121.707C122.872 12.4497 123.954 12.7472 123.954 14.1543C123.966 14.3682 123.935 14.582 123.864 14.7835C123.793 14.9849 123.681 15.1709 123.539 15.329C123.396 15.487 123.223 15.6172 123.027 15.7071C122.835 15.797 122.624 15.8496 122.411 15.8558L124.366 18.6235H123.52L121.661 15.9178H121.49V18.6235H121.499ZM121.499 15.3104H121.71C122.482 15.3104 123.266 15.1616 123.266 14.2039C123.266 13.1873 122.525 13.0882 121.701 13.0882H121.499V15.3073V15.3104Z" fill="#999999" style="mix-blend-mode:multiply"></path></g><g id="Vector_8"><path d="M126.233 16.866L125.492 18.6234H124.742L127.572 12.1582L130.336 18.6234H129.58L128.858 16.866H126.233ZM127.575 13.7605L126.524 16.2307H128.607L127.575 13.7605V13.7605Z" fill="#999999" style="mix-blend-mode:multiply"></path></g><g id="Vector_9"><path d="M131.088 12.4528H134.274V13.0882H131.773V14.923H134.2V15.5614H131.773V17.9851H134.274V18.6235H131.088V12.4497V12.4528Z" fill="#999999" style="mix-blend-mode:multiply"></path></g><g id="Vector_10"><path d="M136.206 17.9885H137.902V18.6238H135.521V12.4531H136.206V17.9885V17.9885Z" fill="#999999" style="mix-blend-mode:multiply"></path></g><g id="Vector_11"><path d="M139.359 12.4531H138.674V18.6269H139.359V12.4531Z" fill="#999999" style="mix-blend-mode:multiply"></path></g></g><g id="Group_3"><g id="Vector_12"><path d="M115.079 26.694L114.339 28.4482H113.592L116.428 21.98L119.192 28.4482H118.436L117.711 26.694H115.083H115.079ZM116.409 23.5823L115.358 26.0525H117.441L116.409 23.5823V23.5823Z" fill="#999999" style="mix-blend-mode:multiply"></path></g><g id="Vector_13"><path d="M120.723 21.9243L122.958 27.1064L125.199 21.9243L126.448 28.4484H125.747L124.957 24.2736H124.938L122.961 28.7025L120.99 24.2736H120.971L120.181 28.4484H119.48L120.726 21.9243H120.723Z" fill="#999999" style="mix-blend-mode:multiply"></path></g><g id="Vector_14"><path d="M127.309 22.2746H130.495V22.913H127.994V24.7447H130.42V25.3832H127.994V27.8068H130.495V28.4453H127.309V22.2715V22.2746Z" fill="#999999" style="mix-blend-mode:multiply"></path></g><g id="Vector_15"><path d="M132.424 28.4451H131.736V22.2744H132.629C133.794 22.2744 134.882 22.5719 134.882 23.9759C134.895 24.1898 134.864 24.4036 134.792 24.6051C134.721 24.8065 134.609 24.9925 134.467 25.1506C134.324 25.3086 134.151 25.4388 133.955 25.5287C133.763 25.6186 133.553 25.6713 133.339 25.6774L135.294 28.4451H134.451L132.595 25.7363H132.421V28.4451H132.424ZM132.424 25.132H132.629C133.404 25.132 134.188 24.9863 134.188 24.0255C134.188 23.0089 133.444 22.9098 132.62 22.9098H132.418L132.424 25.1289V25.132Z" fill="#999999" style="mix-blend-mode:multiply"></path></g><g id="Vector_16"><path d="M136.935 22.2744H136.25V28.4482H136.935V22.2744Z" fill="#999999" style="mix-blend-mode:multiply"></path></g><g id="Vector_17"><path d="M142.953 23.6256C142.712 23.3683 142.42 23.1638 142.098 23.0243C141.776 22.8817 141.428 22.8073 141.078 22.8042C140.403 22.8042 139.758 23.077 139.284 23.5574C138.81 24.0378 138.543 24.6886 138.546 25.3674C138.546 26.0461 138.819 26.6939 139.296 27.1712C139.777 27.6484 140.421 27.915 141.097 27.9119C141.797 27.8933 142.464 27.5989 142.953 27.0937V27.946C142.42 28.3334 141.779 28.541 141.122 28.5441C140.697 28.5565 140.272 28.4853 139.876 28.3303C139.479 28.1753 139.116 27.9429 138.813 27.6453C138.506 27.3478 138.264 26.9914 138.097 26.5978C137.932 26.2042 137.846 25.7796 137.846 25.3519C137.846 24.9242 137.932 24.4996 138.097 24.1059C138.261 23.7123 138.506 23.3559 138.813 23.0584C139.12 22.7608 139.479 22.5284 139.876 22.3734C140.272 22.2185 140.697 22.1472 141.122 22.1596C141.782 22.1503 142.426 22.3579 142.953 22.7577V23.6287V23.6256Z" fill="#999999" style="mix-blend-mode:multiply"></path></g><g id="Vector_18"><path d="M145.122 26.694L144.382 28.4482H143.635L146.471 21.98L149.235 28.4482H148.476L147.751 26.694H145.126H145.122ZM146.452 23.5823L145.398 26.0525H147.481L146.452 23.5823V23.5823Z" fill="#999999" style="mix-blend-mode:multiply"></path></g><g id="Vector_19"><path d="M150.008 22.0138L154.799 27.0564V22.2742H155.484V28.7269L150.693 23.6906V28.448H150.008V22.0107V22.0138Z" fill="#999999" style="mix-blend-mode:multiply"></path></g></g><g id="Group_4"><g id="Vector_20"><path d="M118.836 33.4479C118.594 33.1938 118.303 32.9893 117.981 32.8467C117.658 32.7072 117.311 32.6328 116.961 32.6266C116.301 32.6514 115.678 32.9335 115.222 33.4108C114.767 33.888 114.513 34.5265 114.513 35.1898C114.513 35.853 114.773 36.4884 115.235 36.9626C115.693 37.4368 116.32 37.7126 116.98 37.7343C117.68 37.7157 118.346 37.4213 118.836 36.9161V37.7839C118.303 38.1713 117.662 38.3789 117.004 38.382C116.58 38.3944 116.155 38.3232 115.759 38.1682C115.362 38.0132 114.999 37.7808 114.696 37.4832C114.389 37.1857 114.147 36.8293 113.98 36.4357C113.815 36.0421 113.729 35.6175 113.729 35.1898C113.729 34.7621 113.815 34.3374 113.98 33.9438C114.147 33.5502 114.389 33.1938 114.696 32.8963C115.002 32.5987 115.362 32.3663 115.759 32.2113C116.155 32.0564 116.58 31.9851 117.004 31.9975C117.665 31.9882 118.309 32.1958 118.836 32.5956V33.451V33.4479Z" fill="#999999" style="mix-blend-mode:multiply"></path></g><g id="Vector_21"><path d="M126.174 35.1935C126.177 35.8319 125.991 36.4549 125.641 36.9848C125.291 37.5148 124.792 37.9301 124.206 38.1781C123.62 38.4229 122.976 38.4911 122.353 38.3671C121.73 38.2432 121.159 37.9394 120.71 37.49C120.261 37.0406 119.954 36.4673 119.83 35.8412C119.706 35.2151 119.768 34.5674 120.01 33.9785C120.251 33.3897 120.664 32.8876 121.19 32.5311C121.717 32.1747 122.337 31.9888 122.972 31.9888C123.391 31.9888 123.809 32.0663 124.197 32.2274C124.584 32.3886 124.941 32.6241 125.238 32.9217C125.536 33.2192 125.771 33.5725 125.932 33.963C126.093 34.3535 126.177 34.7719 126.174 35.1935V35.1935ZM120.453 35.1935C120.456 35.6924 120.608 36.179 120.887 36.5943C121.166 37.0065 121.559 37.3289 122.021 37.5179C122.483 37.707 122.988 37.7535 123.475 37.6543C123.961 37.5551 124.407 37.3103 124.761 36.957C125.111 36.6036 125.35 36.1511 125.446 35.6614C125.542 35.1718 125.489 34.6635 125.3 34.2017C125.108 33.7399 124.786 33.3463 124.373 33.0704C123.961 32.7946 123.471 32.6458 122.976 32.6458C122.306 32.652 121.665 32.9217 121.193 33.4021C120.722 33.8793 120.456 34.5271 120.456 35.1996L120.453 35.1935Z" fill="#999999" style="mix-blend-mode:multiply"></path></g><g id="Vector_22"><path d="M127.847 35.7723C127.847 36.231 127.828 36.7516 128.113 37.1484C128.262 37.3343 128.451 37.4862 128.665 37.5885C128.879 37.6907 129.114 37.7465 129.353 37.7465C129.579 37.7434 129.802 37.6907 130.007 37.5947C130.211 37.4986 130.394 37.3591 130.543 37.1886C130.869 36.795 130.841 36.2558 130.841 35.7723V32.1089H131.526V35.9644C131.526 36.6339 131.479 37.1608 130.989 37.6721C130.779 37.8953 130.525 38.075 130.242 38.1959C129.96 38.3168 129.657 38.3819 129.353 38.3819C128.761 38.3819 128.191 38.1587 127.763 37.7527C127.227 37.2351 127.168 36.6711 127.168 35.9613V32.1089H127.856L127.844 35.7754L127.847 35.7723Z" fill="#999999" style="mix-blend-mode:multiply"></path></g><g id="Vector_23"><path d="M132.883 31.8361L137.674 36.8787V32.0964H138.359V38.5492L133.571 33.5128V38.2703H132.883V31.833V31.8361Z" fill="#999999" style="mix-blend-mode:multiply"></path></g><g id="Vector_24"><path d="M144.406 33.448C144.165 33.1939 143.873 32.9893 143.551 32.8499C143.229 32.7104 142.885 32.636 142.531 32.6298C141.871 32.6546 141.248 32.9336 140.793 33.4139C140.337 33.8912 140.083 34.5297 140.083 35.193C140.083 35.8562 140.343 36.4916 140.802 36.9658C141.264 37.4399 141.887 37.7189 142.547 37.7375C143.25 37.7189 143.917 37.4275 144.406 36.9193V37.7871C143.932 38.1311 143.377 38.3356 142.795 38.3821C142.215 38.4286 141.632 38.314 141.112 38.0474C140.591 37.784 140.154 37.378 139.847 36.8821C139.54 36.3831 139.376 35.8097 139.373 35.2239C139.373 34.3716 139.714 33.5534 140.312 32.9522C140.91 32.3509 141.725 32.01 142.572 32.0069C143.232 31.9945 143.879 32.2052 144.406 32.605V33.4511V33.448Z" fill="#999999" style="mix-blend-mode:multiply"></path></g><g id="Vector_25"><path d="M146.344 32.0991H145.656V38.2729H146.344V32.0991Z" fill="#999999" style="mix-blend-mode:multiply"></path></g><g id="Vector_26"><path d="M148.355 37.632H150.05V38.2705H147.67V32.0967H148.355V37.632Z" fill="#999999" style="mix-blend-mode:multiply"></path></g></g><g id="Group_5"><g id="Vector_27"><path d="M57.7027 11.9219H54.7305V38.7185H57.7027V11.9219Z" fill="#999999" style="mix-blend-mode:multiply"></path></g><g id="Vector_28"><path d="M66.5954 31.1098L63.3783 38.7155H60.1055L72.4159 10.6265L84.4102 38.7155H81.1249L77.9761 31.1098H66.5954V31.1098ZM72.3601 17.603L67.7855 28.3359H76.8076L72.3601 17.603V17.603Z" fill="#999999" style="mix-blend-mode:multiply"></path></g><g id="Vector_29"><path d="M106.42 17.7823C105.369 16.6728 104.105 15.7895 102.71 15.1789C101.312 14.5684 99.806 14.246 98.2843 14.2305C92.3367 14.2305 87.5328 19.4188 87.5328 25.3167C87.5328 31.2147 92.377 36.4061 98.3556 36.4061C101.362 36.4061 104.303 34.9835 106.423 32.8543V36.5486C104.108 38.2377 101.325 39.1582 98.464 39.1799C90.9296 39.1799 84.5605 33.0309 84.5605 25.4345C84.5698 21.734 86.0389 18.1852 88.6423 15.5663C91.2457 12.9474 94.779 11.4722 98.4609 11.4598C101.331 11.4195 104.133 12.3462 106.42 14.088V17.7854V17.7823Z" fill="#999999" style="mix-blend-mode:multiply"></path></g></g></g></svg>