<svg xmlns="http://www.w3.org/2000/svg" width="146" height="38" viewBox="0 0 146 38" fill="none"><g id="Frame 1199"><g id="impacx"><g id="Vector"><path fill-rule="evenodd" clip-rule="evenodd" d="M4.51004 9.7024C4.51004 9.7024 4.56429 8.40339 2.56339 7.95181C0.55708 7.50022 -0.207497 6.41864 0.0473596 4.91335C0.302216 3.40806 1.95065 2.73904 3.44183 2.91187C4.93301 3.0847 6.5706 4.03805 6.49468 6.18448C6.42419 8.33092 4.50461 9.70798 4.50461 9.70798L4.51004 9.7024Z" fill="#999999" style="mix-blend-mode:multiply"></path></g><g id="Vector_2"><path fill-rule="evenodd" clip-rule="evenodd" d="M3.47515 30.5356C4.48373 30.5356 5.28081 29.6715 5.28081 28.6345V12.2547C5.28081 11.2178 4.52172 10.3982 3.51314 10.3982C2.50456 10.3982 1.66406 11.2178 1.66406 12.2547V28.6345C1.66406 29.6715 2.50452 30.5356 3.46972 30.5356H3.47515ZM33.9765 17.6125C33.8518 13.4645 30.5713 10.1808 26.4936 10.1808C24.0535 10.1808 21.7868 11.5634 20.6915 13.7656C19.6829 11.5634 17.4977 10.1808 15.0142 10.1808C10.9799 10.1808 7.53115 13.5537 7.53115 17.7017V28.6791C7.53115 29.7161 8.37165 30.5356 9.38023 30.5356C10.3888 30.5356 11.148 29.7161 11.148 28.6791V17.6571C11.148 15.4939 12.9157 13.7266 15.0575 13.7266C17.1994 13.7266 18.9238 15.3266 18.9238 17.5288V28.6791C18.9238 29.7161 19.8076 30.5356 20.7728 30.5356C21.738 30.5356 22.5406 29.7161 22.5406 28.6791V17.6571C22.5406 15.4939 24.3083 13.7266 26.4502 13.7266C28.592 13.7266 30.3164 15.3266 30.3164 17.5288V28.6791C30.3164 29.7161 31.2002 30.5356 32.2088 30.5356C33.2174 30.5356 33.9765 29.7161 33.9765 28.6791V17.618V17.6125ZM46.3615 10.1808C40.7709 10.1808 36.2323 14.7636 36.2323 20.5115V35.938C36.2323 37.0195 37.0294 37.8837 38.038 37.8837C39.0466 37.8837 39.8437 37.0195 39.8437 35.938V28.3725C41.6114 29.8834 43.878 30.7921 46.3615 30.7921C51.9086 30.7921 56.4473 26.1703 56.4473 20.506C56.4473 14.8416 51.9086 10.1752 46.3615 10.1752V10.1808ZM46.15 27.2519C42.5766 27.2519 39.6756 24.2246 39.6756 20.5115C39.6756 16.7985 42.5766 13.7266 46.15 13.7266C49.9349 13.7266 52.8359 16.6647 52.8359 20.5115C52.8359 24.3584 49.9349 27.2519 46.15 27.2519ZM67.6989 10.1808C62.1951 10.1808 57.6511 14.7636 57.6511 20.5115C57.6511 26.2595 61.8535 30.8423 67.3627 30.8423C70.3071 30.8423 72.449 29.7607 74.0486 28.2498V28.5955C74.0486 29.6771 74.8457 30.5412 75.8977 30.5412C76.8629 30.5412 77.7034 29.8499 77.7034 28.5955V20.5115C77.7034 14.7636 73.2461 10.1808 67.6989 10.1808ZM67.6989 27.2519C64.0442 27.2519 61.0998 24.1856 61.0998 20.5115C61.0998 16.8375 64.0821 13.7266 67.6989 13.7266C71.3157 13.7266 74.2547 16.7539 74.2547 20.5115C74.2547 24.2692 71.3971 27.2519 67.6989 27.2519ZM96.5193 25.5236C95.7222 24.5312 94.6269 25.0051 93.8731 25.5682C92.6531 26.6944 91.0589 27.2519 89.5027 27.2519C85.7612 27.2519 83.115 24.0963 83.115 20.4669C83.115 16.8375 85.8045 13.7266 89.5027 13.7266C91.1836 13.7266 92.6531 14.2451 93.8731 15.3712C94.6323 15.9343 95.7222 16.4082 96.5193 15.4158C97.067 14.7245 97.1483 13.6429 96.2645 12.8234C94.6269 11.1397 92.1434 10.1864 89.5406 10.1864C84.2862 10.1864 79.4548 14.2897 79.4548 20.5171C79.4548 26.7445 83.9934 30.8479 89.5406 30.8479C92.1054 30.8479 94.6269 29.8109 96.2645 28.1272C97.1483 27.3076 97.0616 26.2261 96.5193 25.5347V25.5236ZM119.326 27.3801L111.003 16.5978L108.774 13.6652L100.743 3.52405C100.087 2.69335 98.851 2.6599 98.0973 3.35122C97.3381 4.04254 97.4249 5.25235 98.0973 6.03287L106.464 16.5978L108.693 19.4411L116.723 29.8834C117.352 30.6973 118.529 30.7475 119.288 30.0116C120.004 29.3649 120.085 28.2833 119.332 27.3745L119.326 27.3801Z" fill="#999999" style="mix-blend-mode:multiply"></path></g><g id="Vector_3"><path fill-rule="evenodd" clip-rule="evenodd" d="M101.172 29.7227C111.968 11.5645 124.776 1.6909 145.18 0.191186C125.199 -0.823491 108.725 8.48143 98.1351 26.8571C98.1351 26.8571 96.85 28.368 98.2327 29.929C99.6154 31.4845 101.172 29.7283 101.172 29.7283V29.7227Z" fill="#999999" style="mix-blend-mode:multiply"></path></g></g></g></svg>