<svg xmlns="http://www.w3.org/2000/svg" width="176" height="24" viewBox="0 0 176 24" fill="none"><g id="image 40" clip-path="url(#clip0_4249_1870)"><g id="Clip path group"><mask id="mask0_4249_1870" style="mask-type:luminance" maskUnits="userSpaceOnUse" x="0" y="0" width="176" height="24"><g id="a"><path id="Vector" d="M0.138672 0H175.853V23.5911H0.138672V0Z" fill="white"></path></g></mask><g mask="url(#mask0_4249_1870)"><g id="Group"><path id="Vector_2" d="M6.35039 0.797143H0.138672V22.8394H6.35039V0.797143ZM94.6704 0.797143H88.7278V22.8394H104.123V18.06H94.6704V0.797143ZM111.611 0.797143H105.669V22.8394H111.611V0.797143ZM151.148 11.2046H142.775V0.797143H136.833V22.8394H142.775V15.6197H151.148V22.8394H157.089V0.797143H151.148V11.2046ZM24.1781 11.814L9.32296 0V22.8394H14.9947V11.2303L27.0135 20.5817L29.849 22.8394V0H24.1781V11.814ZM36.9384 0.797143H31.1312V5.84229H36.9384V22.8394H42.8801V5.84229H48.6872V0.797143H36.9384ZM175.853 0.797143H158.297V5.84229H164.104V22.8394H170.046V5.84229H175.853V0.797143ZM53.0758 0.797143H50.1058V22.8394H66.0401V17.7943H56.3175V14.0254H63.8801V9.61029H56.3175V5.84229H66.0401V0.797143H53.0758ZM78.3984 0.797143H68.471V22.8394H74.4127V17.7934H77.0107L79.8152 22.8394H86.297L82.7312 16.4229C85.0412 14.9246 86.567 12.3514 86.567 9.42686V8.82686C86.567 4.392 82.9104 0.795429 78.4001 0.795429L78.3984 0.797143ZM76.9781 13.2789H74.4127V5.57657H76.9781C78.0581 5.57657 79.0387 6.00686 79.7467 6.70543C80.1103 7.05957 80.3994 7.48301 80.5966 7.95073C80.7939 8.41844 80.8954 8.92095 80.8952 9.42857C80.8952 11.556 79.1424 13.2797 76.9781 13.2797V13.2789ZM135.378 11.094V18.51C133.175 21.5803 129.487 23.5911 125.308 23.5911C118.558 23.5911 113.087 18.3411 113.087 11.8629C113.087 5.38457 118.557 0.134571 125.307 0.134571C129.104 0.134571 132.497 1.79657 134.738 4.40314L130.056 8.01943C128.916 6.72514 127.213 5.90229 125.308 5.90229C121.879 5.90229 119.097 8.57143 119.097 11.8637C119.097 15.1551 121.878 17.8243 125.308 17.8243C127.394 17.8243 129.239 16.8386 130.365 15.3249H127.362V11.0957H135.379L135.378 11.094Z" fill="#999999"></path></g></g></g></g><defs><clipPath id="clip0_4249_1870"><rect width="175.714" height="24" fill="white" transform="translate(0.142578)"></rect></clipPath></defs></svg>