<svg xmlns="http://www.w3.org/2000/svg" id="uuid-b7bc04d8-adc0-4e9b-bda0-83bbaa5381b2" data-name="Layer 1" viewBox="0 0 2181.05 444.99"><g><path d="M487.86,402.21c-29.67,0-54.99-5.92-75.99-17.75-21-11.82-37.08-28.66-48.24-50.49-11.17-21.82-16.75-48.07-16.75-78.74V119.01c0-12.5.08-24.66.25-36.49.16-11.83.08-23.08-.25-33.75h47.99c0,10.67.08,21.92.25,33.75.17,11.83.17,23.99,0,36.49-.17,12.5-.25,24.92-.25,37.24v100.98c0,21,3.66,39.08,11,54.24,7.33,15.17,17.91,26.67,31.74,34.5,13.83,7.83,30.57,11.75,50.24,11.75s35.99-3.91,49.99-11.75c14-7.83,24.57-19.33,31.75-34.5,7.16-15.16,10.75-33.24,10.75-54.24V119.01c0-12.5.08-24.66.25-36.49.16-11.83.08-23.08-.25-33.75h48.49v206.47c0,30.67-5.58,56.91-16.75,78.74-11.17,21.83-27.24,38.67-48.24,50.49-21,11.83-46.33,17.75-75.99,17.75Z"></path><path d="M875.17,396.22l-114.98-296.45h-1.5v296.45h-47.49c0-11,.08-22.41.25-34.25.16-11.82.16-23.91,0-36.24-.17-12.33-.25-24.66-.25-36.99v-132.48c0-12.32.08-24.74.25-37.24.16-12.5.16-24.66,0-36.49-.17-11.83-.25-23.08-.25-33.75h76.99l113.48,293.95h1.5l112.98-293.95h74.49c0,10.67-.09,21.92-.25,33.75-.17,11.83-.17,23.99,0,36.49.16,12.5.25,24.92.25,37.24v132.48c0,12.33-.09,24.67-.25,36.99-.17,12.33-.17,24.42,0,36.24.16,11.83.25,23.25.25,34.25h-48V102.76h-1.5l-112.98,293.45h-52.99Z"></path><path d="M1410.79,354.22v41.99h-229.96c0-10.33.08-21.25.25-32.74.16-11.5.16-23.33,0-35.5-.17-12.16-.25-24.25-.25-36.24v-135.48c0-12.32.08-24.74.25-37.24.16-12.5.16-24.66,0-36.49-.17-11.83-.25-23.08-.25-33.75h226.46v42.49c-7.67-.33-15.75-.5-24.25-.5s-17.75.08-27.75.25c-10,.17-21,.25-32.99.25h-92.98v108.48h104.48c10,0,19.25-.08,27.74-.25,8.5-.16,16.58-.25,24.25-.25v41.99c-7.67,0-15.75.08-24.25.25-8.5.17-17.75.25-27.74.25h-104.48v111.98h96.48c12,0,23,.08,33,.25,10,.17,19.32.25,28,.25h24.49-.5Z"></path><path d="M1468.71,362.47c-.17-11.82-.17-23.99,0-36.49.16-12.5.25-24.91.25-37.24V55.77l-.5-7h71.49l164.97,291.95h1.5v-184.47c0-12.32.08-24.74.25-37.24.16-12.5.16-24.66,0-36.49-.17-11.83-.25-23.08-.25-33.75h47.99v347.44h-69.99l-165.97-293.95h-2v293.95h-47.49c0-10.66-.08-21.91-.25-33.75Z"></path><path d="M1845.1,362.47V48.77h48.49c0,10.67-.09,21.92-.25,33.75-.17,11.83-.17,23.99,0,36.49.16,12.5.25,24.92.25,37.24v132.48c0,12.33-.09,24.74-.25,37.24-.17,12.5-.17,24.67,0,36.49.16,11.83.25,23.08.25,33.75h-48.49v-33.75Z"></path><path d="M2051.75,402.21c-18,0-35.92-3-53.74-9-17.84-6-33.42-14.16-46.75-24.5v-45.99c17.66,12.67,34.41,21.83,50.24,27.5,15.83,5.67,31.24,8.5,46.24,8.5,13.66,0,25.99-2,36.99-6,11-4,19.75-10.16,26.25-18.5,6.5-8.33,9.75-18.33,9.75-30s-3.59-20.75-10.75-28.24c-7.17-7.5-18.25-14.58-33.25-21.25l-44.49-20c-23.99-10.66-41.99-23.75-53.99-39.24-12-15.5-18-32.91-18-52.24,0-18.33,5-35.07,15-50.24,10-15.16,23.91-27.32,41.74-36.49,17.83-9.16,37.91-13.75,60.24-13.75,16,0,31.32,2.34,45.99,7,14.66,4.67,26.66,10.34,35.99,17v43.49c-13-8-26-14-38.99-18-13-4-26.17-6-39.49-6-14,0-26.42,2.09-37.24,6.25-10.84,4.17-19.25,10.34-25.25,18.5-6,8.17-9,17.92-9,29.25s3.41,20.67,10.25,28.99c6.83,8.34,17.75,15.83,32.74,22.5l44.99,20.5c24.33,11,42.57,23.42,54.74,37.24,12.16,13.83,18.25,31.08,18.25,51.74,0,19.33-5.25,36.75-15.75,52.24-10.5,15.5-24.83,27.5-42.99,35.99-18.17,8.5-38.08,12.75-59.74,12.75Z"></path></g><path d="M10.81,383.22c37.62-8.21,45.79-28.17,52.46-50.99L127.78,112.26c10.32-34.29-3.97-45.91-30.25-50.49v-13h135.33v13c-29,3.1-43.92,16.05-53.12,50.08l-76,257.87h89.99c44.79,0,71.99-41.46,71.99-92.84h17.64v119.33H10.81v-13Z"></path></svg>