<svg xmlns="http://www.w3.org/2000/svg" width="146" height="24" viewBox="0 0 146 24" fill="none"><g id="Group 1128"><path id="Vector" d="M32.7611 24C30.78 24 29.0894 23.6047 27.6872 22.8148C26.285 22.0256 25.2113 20.9012 24.4662 19.4436C23.7204 17.9866 23.3478 16.2339 23.3478 14.1861V5.08992C23.3478 4.25529 23.3531 3.44336 23.3645 2.65346C23.3752 1.86357 23.3698 1.1124 23.3478 0.399955H26.5521C26.5521 1.1124 26.5574 1.86357 26.5688 2.65346C26.5801 3.44336 26.5801 4.25529 26.5688 5.08992C26.5574 5.92455 26.5521 6.75384 26.5521 7.57645V14.3189C26.5521 15.7211 26.7965 16.9283 27.2866 17.9406C27.776 18.9535 28.4824 19.7213 29.4059 20.2442C30.3293 20.767 31.447 21.0287 32.7604 21.0287C34.0504 21.0287 35.1635 20.7676 36.0983 20.2442C37.0331 19.7213 37.7388 18.9535 38.2182 17.9406C38.6963 16.9283 38.936 15.7211 38.936 14.3189V5.09059C38.936 4.25595 38.9414 3.44402 38.9527 2.65413C38.9634 1.86423 38.9581 1.11306 38.936 0.400623H42.1737V14.1867C42.1737 16.2346 41.8011 17.9866 41.0553 19.4442C40.3095 20.9018 39.2365 22.0263 37.8343 22.8155C36.4328 23.6047 34.7415 24 32.7611 24ZM58.622 23.6L50.944 3.80525H50.8439V23.5994H47.6729C47.6729 22.8649 47.6783 22.103 47.6896 21.3125C47.7003 20.5233 47.7003 19.716 47.6896 18.8927C47.6783 18.0694 47.6729 17.2462 47.6729 16.4229V7.57712C47.6729 6.75451 47.6783 5.92522 47.6896 5.09059C47.7003 4.25595 47.7003 3.44402 47.6896 2.65413C47.6783 1.86423 47.6729 1.11306 47.6729 0.400623H52.8136L60.3907 20.0278H60.4909L68.0346 0.400623H73.0084C73.0084 1.11306 73.0023 1.86423 72.9917 2.65413C72.9803 3.44402 72.9803 4.25595 72.9917 5.09059C73.0023 5.92522 73.0084 6.75451 73.0084 7.57712V16.4229C73.0084 17.2462 73.0023 18.0701 72.9917 18.8927C72.9803 19.716 72.9803 20.5233 72.9917 21.3125C73.0023 22.1024 73.0084 22.8649 73.0084 23.5994H69.8034V4.00556H69.7032L62.1601 23.6H58.622ZM94.3856 20.7957V23.5994H79.0311C79.0311 22.9096 79.0364 22.1805 79.0477 21.4133C79.0584 20.6454 79.0584 19.8556 79.0477 19.043C79.0364 18.231 79.0311 17.4238 79.0311 16.6232V7.57712C79.0311 6.75451 79.0364 5.92522 79.0477 5.09059C79.0584 4.25595 79.0584 3.44402 79.0477 2.65413C79.0364 1.86423 79.0311 1.11306 79.0311 0.400623H94.1519V3.2377C93.6398 3.21567 93.1003 3.20432 92.5327 3.20432C91.9652 3.20432 91.3476 3.20966 90.6798 3.22101C90.0121 3.23236 89.2777 3.2377 88.4771 3.2377H82.2688V10.481H89.2449C89.9127 10.481 90.5303 10.4756 91.0972 10.4643C91.6647 10.4536 92.2042 10.4476 92.7163 10.4476V13.2513C92.2042 13.2513 91.6647 13.2566 91.0972 13.268C90.5296 13.2793 89.912 13.2847 89.2449 13.2847H82.2681V20.7616H88.7101C89.5114 20.7616 90.2458 20.767 90.9135 20.7783C91.5812 20.7897 92.2035 20.795 92.7831 20.795H94.4183H94.3856V20.7957ZM98.253 21.3465C98.2416 20.5573 98.2416 19.7447 98.253 18.9101C98.2636 18.0755 98.2696 17.2468 98.2696 16.4235V0.868017L98.2363 0.400623H103.01L114.025 19.8943H114.125V7.57712C114.125 6.75451 114.13 5.92522 114.142 5.09059C114.152 4.25595 114.152 3.44402 114.142 2.65413C114.13 1.86423 114.125 1.11306 114.125 0.400623H117.329V23.5994H112.656L101.574 3.97218H101.441V23.5994H98.2696C98.2696 22.8876 98.2636 22.1364 98.253 21.3465ZM123.385 21.3465V0.400623H126.622C126.622 1.11306 126.616 1.86423 126.606 2.65413C126.594 3.44402 126.594 4.25595 126.606 5.09059C126.616 5.92522 126.622 6.75451 126.622 7.57712V16.4229C126.622 17.2462 126.616 18.0748 126.606 18.9094C126.594 19.744 126.594 20.5566 126.606 21.3459C126.616 22.1358 126.622 22.8869 126.622 23.5994H123.385V21.3465ZM137.183 24C135.981 24 134.784 23.7997 133.595 23.3991C132.403 22.9984 131.363 22.4536 130.473 21.7632V18.6924C131.652 19.5384 132.771 20.15 133.828 20.5286C134.885 20.9072 135.914 21.0962 136.915 21.0962C137.827 21.0962 138.65 20.9626 139.385 20.6955C140.119 20.4284 140.704 20.0171 141.138 19.4603C141.572 18.9041 141.789 18.2364 141.789 17.4572C141.789 16.7013 141.549 16.0717 141.071 15.5716C140.592 15.0708 139.852 14.598 138.851 14.1527L135.88 12.8173C134.278 12.1055 133.076 11.2315 132.275 10.1972C131.474 9.16225 131.073 7.99978 131.073 6.7091C131.073 5.4852 131.407 4.36746 132.075 3.35455C132.743 2.34231 133.671 1.53038 134.862 0.918095C136.052 0.306477 137.393 0 138.884 0C139.952 0 140.975 0.156243 141.955 0.467394C142.934 0.779212 143.735 1.1578 144.358 1.60249V4.50634C143.49 3.97218 142.622 3.57156 141.755 3.30447C140.887 3.03739 140.007 2.90385 139.118 2.90385C138.183 2.90385 137.354 3.0434 136.631 3.32117C135.908 3.5996 135.346 4.01157 134.945 4.55642C134.545 5.10194 134.344 5.75295 134.344 6.50946C134.344 7.24393 134.572 7.88961 135.029 8.44514C135.485 9.002 136.214 9.50211 137.215 9.94747L140.219 11.3163C141.843 12.0507 143.061 12.88 143.874 13.8028C144.686 14.7262 145.092 15.878 145.092 17.2575C145.092 18.5482 144.742 19.7113 144.041 20.7456C143.34 21.7805 142.383 22.5818 141.17 23.1487C139.959 23.7169 138.63 24 137.183 24ZM0.908203 22.732C3.42011 22.1838 3.96563 20.8511 4.41099 19.3274L8.71835 4.64055C9.40742 2.35099 8.45327 1.57512 6.69854 1.26931V0.401291H15.7346V1.26931C13.7983 1.4763 12.802 2.34097 12.1877 4.61318L7.11319 21.8313H13.1219C16.1125 21.8313 17.9287 19.063 17.9287 15.6323H19.1065V23.6H0.908203V22.732Z" fill="#999999"></path></g></svg>