<svg xmlns="http://www.w3.org/2000/svg" width="56" height="22" viewBox="0 0 56 22" fill="none"><path d="M42.8281 0.369629H55.6227V5.33375H47.9127V8.4327H54.2228V13.3968H47.9127V16.6785H55.6227V21.626H42.8281V0.369629Z" fill="white"></path><path d="M35.7548 8.56571C35.5637 7.25302 35.1607 6.29343 34.708 5.86141C34.1139 5.42107 33.4617 5.15106 32.9342 5.15106C31.9538 5.15106 31.1687 5.76586 30.7657 6.821C30.2465 8.04645 30.0471 9.5253 30.0471 11.27C30.0471 15.0295 31.0233 16.9569 33.0006 16.9569C34.5044 16.9569 35.4931 15.6443 35.7506 13.2847H40.6815C40.478 15.9018 39.7593 18.0785 38.5131 19.6613C37.2004 21.2356 35.356 22 33.2665 22C31.5592 22 30.0471 21.568 28.8009 20.7912C27.4965 19.9188 26.5784 18.6934 25.9262 17.04C25.2657 15.4656 24.8711 13.3678 24.8711 11.2659C24.8711 8.81911 25.2657 6.63406 25.9844 4.88935C26.782 3.23187 27.8371 1.92749 28.9961 1.12991C30.1842 0.440332 31.4968 0 32.6808 0C35.4308 0.0872356 37.4663 1.04683 38.5754 2.52983C39.697 4.18731 40.4281 6.20204 40.5486 8.56156H35.7548V8.56571Z" fill="white"></path><path d="M22.8963 0.369629H17.8242V21.6053H22.8963V0.369629Z" fill="white"></path><path d="M0 0.369629H4.56533L9.96979 12.0592V7.45233V0.369629H14.8633V21.6053H10.0404L4.77304 10.1109L4.75642 15.0668L4.77304 21.6053H0V0.369629Z" fill="white"></path><path d="M45.3015 8.60303H40.6406V13.2639H45.3015V8.60303Z" fill="#23C9FF"></path><path d="M27.5554 8.60303H22.8945V13.2639H27.5554V8.60303Z" fill="#23C9FF"></path><path d="M17.8249 8.60303H13.1641V13.2639H17.8249V8.60303Z" fill="#23C9FF"></path></svg>