<svg xmlns="http://www.w3.org/2000/svg" width="86" height="34" viewBox="0 0 86 34" fill="none"><g id="Group 1129"><path id="Vector" d="M66.207 0.570312H85.9804V8.24214H74.065V13.0314H83.8169V20.7032H74.065V25.775H85.9804V33.4211H66.207V0.570312Z" fill="#999999"></path><path id="Vector_2" d="M55.2753 13.2379C54.98 11.2092 54.3573 9.72621 53.6575 9.05853C52.7394 8.37802 51.7315 7.96073 50.9162 7.96073C49.4011 7.96073 48.1877 8.91088 47.565 10.5415C46.7625 12.4354 46.4543 14.7209 46.4543 17.4173C46.4543 23.2273 47.963 26.2062 51.0189 26.2062C53.3429 26.2062 54.8709 24.1775 55.2689 20.531H62.8894C62.5748 24.5755 61.4641 27.9396 59.5382 30.3856C57.5095 32.8187 54.659 34 51.4298 34C48.7912 34 46.4543 33.3323 44.5283 32.1318C42.5125 30.7836 41.0937 28.8897 40.0857 26.3346C39.065 23.9014 38.4551 20.6594 38.4551 17.4109C38.4551 13.6295 39.065 10.2526 40.1756 7.55627C41.4083 4.99471 43.0389 2.97885 44.8301 1.74622C46.6662 0.680514 48.6949 0 50.5246 0C54.7746 0.134819 57.9203 1.61782 59.6345 3.90974C61.3678 6.4713 62.4978 9.58497 62.6839 13.2315H55.2753V13.2379Z" fill="#999999"></path><path id="Vector_3" d="M35.4052 0.570312H27.5664V33.389H35.4052V0.570312Z" fill="#999999"></path><path id="Vector_4" d="M0.0175781 0.570312H7.07309L15.4254 18.636V11.5163V0.570312H22.9881V33.389H15.5346L7.39409 15.6251L7.36841 23.2841L7.39409 33.389H0.0175781V0.570312Z" fill="#999999"></path><path id="Vector_5" d="M70.0333 13.2959H62.8301V20.4991H70.0333V13.2959Z" fill="#6C6C6C"></path><path id="Vector_6" d="M42.6075 13.2959H35.4043V20.4991H42.6075V13.2959Z" fill="#6C6C6C"></path><path id="Vector_7" d="M27.5625 13.2959H20.3594V20.4991H27.5625V13.2959Z" fill="#6C6C6C"></path></g></svg>