<svg xmlns="http://www.w3.org/2000/svg" id="uuid-92a221c3-ae8f-4f93-89ed-2d87a0ee4979" data-name="uuid-452c9df9-2cdc-4f3d-975f-7dc70db5874a" viewBox="0 0 136.6 26.39"><defs><style>      .uuid-b240e092-671b-4982-ae25-38ac4e5a16ee {        fill: #999;      }    </style></defs><path class="uuid-b240e092-671b-4982-ae25-38ac4e5a16ee" d="M43.18,10.34c-.93-.06-1.84.32-2.45,1.03l-.48-.99h-2.05v8.9h3.07v-4.53c0-1.14.45-1.61,1.54-1.61h1.19v-2.81h-.81ZM49.39,19.58c2.89,0,4.99-1.99,4.99-4.74s-2.1-4.74-4.99-4.74-4.99,1.98-4.99,4.74,2.09,4.74,4.99,4.74M49.39,16.83c-1.03.03-1.9-.79-1.92-1.82,0-.06,0-.11,0-.17-.06-1.03.72-1.92,1.75-1.99.05,0,.11,0,.17,0,1.04-.03,1.9.8,1.92,1.83,0,.05,0,.1,0,.16.06,1.03-.72,1.92-1.75,1.99-.05,0-.11,0-.17,0h0ZM59.82,19.58c2.63,0,4.38-1.62,4.38-4.11v-5.08h-3.07v4.95c0,.93-.5,1.49-1.31,1.49s-1.33-.55-1.33-1.49v-4.95h-3.06v5.08c0,2.49,1.76,4.11,4.39,4.11h0ZM71.2,10.12c-1.06-.03-2.08.4-2.8,1.18l-.42-.92h-2.15v8.9h3.07v-4.75c0-1.13.55-1.8,1.51-1.8.77,0,1.16.51,1.16,1.55v5h3.07v-5.43c0-2.27-1.36-3.74-3.42-3.74M82.63,7.17v3.54c-.66-.41-1.43-.62-2.21-.62-2.73,0-4.68,1.98-4.68,4.74s1.94,4.75,4.68,4.75c.98,0,1.93-.33,2.68-.96l.29.66h2.27V7.17h-3.03ZM80.82,16.87c-1.08.02-1.98-.85-1.99-1.93,0-.04,0-.07,0-.11-.04-1.08.8-1.99,1.89-2.04.04,0,.07,0,.11,0,1.08-.02,1.98.85,1.99,1.93,0,.04,0,.07,0,.11.04,1.08-.8,1.99-1.89,2.04-.04,0-.07,0-.11,0M93.3,10.53h-2.1v-.6c-.03-.37.24-.69.6-.72.04,0,.08,0,.13,0h1.35v-2.35h-2.14c-1.89,0-2.87,1.04-2.87,2.83v.85h-1.52v2.41h1.48v6.35h3.07v-6.35h2v-2.41ZM98.66,19.58c2.89,0,4.99-1.99,4.99-4.74s-2.1-4.74-4.99-4.74-4.99,1.98-4.99,4.74,2.09,4.74,4.99,4.74M98.66,16.83c-1.03.03-1.9-.79-1.92-1.82,0-.06,0-.11,0-.17-.06-1.03.72-1.92,1.75-1.99.05,0,.11,0,.17,0,1.04-.03,1.9.8,1.92,1.83,0,.05,0,.1,0,.16.06,1.03-.72,1.92-1.75,1.99-.05,0-.11,0-.17,0ZM109.84,10.34c-.93-.06-1.84.32-2.45,1.03l-.48-.99h-2.05v8.9h3.07v-4.53c0-1.14.45-1.61,1.54-1.61h1.19v-2.81h-.81ZM120.76,14.75c0-2.61-1.99-4.66-4.86-4.66s-4.84,2.01-4.84,4.74c-.05,2.58,2.01,4.71,4.58,4.75.08,0,.17,0,.25,0,2.12.08,4.03-1.27,4.66-3.3h-3.05c-.35.55-.96.87-1.61.83-.92.05-1.72-.63-1.82-1.55h6.61c.04-.27.06-.54.06-.81h0ZM115.9,12.5c.86-.05,1.63.53,1.84,1.37h-3.6c.17-.83.92-1.41,1.76-1.37M125.38,19.58c2.37,0,3.94-1.22,3.94-3.08,0-2.26-1.87-2.55-3.28-2.8-.85-.15-1.53-.27-1.53-.78,0-.41.33-.66.82-.66.56,0,.94.27.94.83h2.87c-.03-1.8-1.5-3.01-3.77-3.01s-3.8,1.15-3.8,2.94c0,2.16,1.83,2.58,3.21,2.8.86.14,1.53.29,1.53.8,0,.46-.43.69-.87.69-.5.07-.96-.29-1.03-.79,0-.05,0-.11,0-.16h-2.95c.03,1.93,1.5,3.21,3.93,3.21h0ZM135.43,16.6c-.52.05-.98-.33-1.03-.85,0-.06,0-.12,0-.17v-2.84h2.16v-2.36h-2.24v-2.6h-.63l-3.99,4.25v.72h1.63v3.36c0,1.98,1.2,3.18,3.16,3.18h2.11v-2.68h-1.18Z"></path><path class="uuid-b240e092-671b-4982-ae25-38ac4e5a16ee" d="M21.9,0l-4.39,9.34,6.58,13.75h8.79L21.9,0ZM0,21.33h4.82l4.28-8.95-2.02-3.91L0,21.33ZM9.99,14.09l-3.47,7.25-2.42,5.06h19.87l-1.58-3.3-5.72-11.96-2.63-5.51-4.05,8.46Z"></path></svg>