<svg xmlns="http://www.w3.org/2000/svg" width="1313" height="212" viewBox="0 0 1313 212" fill="none"><g clip-path="url(#clip0_950_2)"><path d="M417.314 204.733L340.167 9.84928C338.366 5.34503 336.625 2.70253 335.004 1.98185C331.882 1.44134 328.64 1.26117 325.458 1.44134H293.579C286.495 1.44134 281.992 4.08384 280.011 9.30876L202.624 204.673C201.903 206.355 201.423 208.036 201.243 209.838C201.243 210.739 202.323 211.219 204.545 211.219H241.827C244.529 211.459 247.051 209.898 248.071 207.436L249.452 204.012L255.576 188.938L262.3 171.942H262.48L309.248 55.5524V55.192L339.087 128.281L356.557 171.101L371.446 207.376C372.287 209.898 374.808 211.459 377.45 211.159H416.414C418.575 211.159 418.875 208.997 417.254 204.613" fill="white"></path><path d="M141.086 91.4663L74.6255 76.9326C60.8771 72.128 54.0329 65.9422 54.0329 58.255C54.0329 48.5858 60.8771 43.7212 74.6255 43.7212H172.125C184.793 43.7212 191.096 37.4754 191.096 25.0436V4.38414C191.096 1.44136 189.716 0 187.014 0H72.4041C51.6915 0 34.8212 5.16487 21.6732 15.3745C7.26442 26.545 0 42.2198 0 62.3388C0 92.187 19.4518 111.525 58.2355 120.293L122.475 134.947C137.664 138.431 145.289 144.616 145.289 153.625C145.289 163.294 137.664 168.159 122.475 168.159H20.5325C9.66589 168.159 4.2626 173.744 4.2626 184.914V207.436C4.2626 210.318 5.64344 211.76 8.16497 211.76H118.332C140.846 211.76 158.917 207.436 172.425 198.848C188.875 188.398 197.1 172.663 197.16 151.583C197.16 119.753 178.489 99.6941 141.146 91.4062" fill="white"></path><path d="M578.212 76.0918C577.432 84.3796 571.969 91.4663 564.104 94.2289C559.301 96.0306 551.136 96.9315 539.549 96.9315H485.636V43.1207H539.189C550.355 43.1207 558.58 44.1417 563.924 46.1235C571.788 48.766 577.252 55.9728 577.672 64.2606H577.972C578.152 66.9632 578.272 68.4646 578.272 69.1853V76.0317L578.212 76.0918ZM633.986 70.987C633.986 23.9626 606.189 0.42041 550.716 0.42041H449.134C438.267 0.42041 432.864 5.82551 432.864 16.6958V209.538C432.864 210.979 433.884 211.76 435.866 211.76H469.366C480.233 211.76 485.636 206.355 485.636 195.484V141.193H550.716C606.189 141.193 633.926 117.771 633.926 70.987" fill="white"></path><path d="M701.047 4.92465C701.047 1.62153 699.786 0 697.205 0H660.943C656.74 0 653.979 0.90085 652.778 2.70255C651.217 5.64533 650.557 9.0085 650.857 12.3116V199.929C650.857 204.913 651.517 208.096 652.898 209.538C654.279 211.039 657.341 211.76 662.084 211.76H696.665C698.766 212.06 700.747 210.619 701.047 208.457C701.047 208.096 701.047 207.736 701.047 207.316V4.92465Z" fill="white"></path><path d="M884.579 4.14391C884.579 1.44136 883.558 0 881.577 0H740.972C731.486 0 726.683 5.58527 726.683 16.7558V206.715C726.683 210.198 728.364 211.94 731.606 211.94H880.797C883.198 211.94 884.399 210.198 884.399 206.715V184.434C884.399 178.008 883.919 173.984 883.018 172.363C881.577 169.66 877.975 168.219 872.152 168.219H773.631V126.9H863.146C865.127 127.2 866.988 125.759 867.289 123.777C867.289 123.476 867.289 123.116 867.289 122.816V90.2652C867.289 86.4215 865.307 84.4997 861.225 84.4997H773.631V42.8805H871.311C877.014 42.8805 880.617 42.3399 882.178 41.2589C883.739 40.1779 884.519 36.9348 884.519 31.6499L884.639 4.20397L884.579 4.14391Z" fill="white"></path><path d="M1097.29 4.68442C1097.29 1.56147 1096.15 0 1093.99 0H1061.45C1054.12 0 1050.58 5.22493 1050.58 15.6748V128.581L961.066 2.82266C959.985 1.14108 958.124 0.120113 956.083 0.120113H919.28C911.415 0.120113 907.453 5.34504 907.453 15.7949V205.754C907.333 207.316 907.453 208.877 907.753 210.439C908.294 211.58 909.734 212.12 912.136 212.12H941.494C947.377 212.12 951.1 210.859 952.781 208.276C954.222 206.475 955.002 202.391 955.002 196.145V76.8125L1048.36 209.778C1049.08 211.039 1050.88 211.7 1053.76 211.7H1086.72C1092.13 211.7 1095.43 210.318 1096.33 207.556C1097.17 203.592 1097.47 199.508 1097.17 195.484V4.68442H1097.29Z" fill="white"></path><path d="M1257.11 91.4663L1190.65 76.9326C1176.9 72.128 1169.99 65.9422 1170.05 58.255C1170.05 48.5858 1176.9 43.7212 1190.65 43.7212H1288.14C1300.81 43.7212 1307.12 37.4754 1307.12 25.0436V4.38414C1307.12 1.44136 1305.74 0 1302.97 0H1188.42C1167.77 0 1150.84 5.10482 1137.63 15.3745C1123.16 26.545 1115.96 42.2198 1115.96 62.3388C1115.96 92.187 1135.35 111.525 1174.2 120.293L1238.43 134.947C1253.62 138.431 1261.25 144.616 1261.25 153.625C1261.25 163.294 1253.62 168.159 1238.43 168.159H1136.55C1125.69 168.159 1120.28 173.744 1120.28 184.914V207.436C1120.28 210.378 1121.54 211.82 1124.12 211.82H1234.35C1256.87 211.82 1274.94 207.496 1288.45 198.908C1304.84 188.458 1313 172.723 1313 151.643C1313 119.813 1294.33 99.7541 1256.93 91.4663" fill="white"></path><path d="M135.983 122.756C221.835 166.957 286.735 152.123 363.882 97.6521C404.587 69.0051 426.68 116.63 386.335 141.734C300.963 194.704 216.372 179.509 135.923 122.756" fill="#009EE2"></path></g><defs><clipPath id="clip0_950_2"><rect width="1313" height="212" fill="white"></rect></clipPath></defs></svg>