<svg xmlns="http://www.w3.org/2000/svg" width="146" height="24" viewBox="0 0 146 24" fill="none"><g id="uuid-f2aa7cf5-87ea-47c1-a941-065738fade61" clip-path="url(#clip0_4249_1785)"><path id="Vector" d="M46.599 23.1771L38.0839 1.11476C37.8851 0.604848 37.6929 0.305698 37.514 0.224112C37.1694 0.162922 36.8116 0.142526 36.4604 0.162922H32.9417C32.1597 0.162922 31.6627 0.462072 31.4441 1.05357L22.9024 23.1703C22.8229 23.3607 22.7699 23.551 22.75 23.755C22.75 23.857 22.8693 23.9114 23.1145 23.9114H27.2296C27.5278 23.9386 27.8061 23.7618 27.9187 23.483L28.0711 23.0955L28.747 21.389L29.4892 19.4649H29.5091L34.6712 6.2887V6.24791L37.9646 14.5221L39.8929 19.3697L41.5363 23.4762C41.6291 23.7618 41.9074 23.9386 42.199 23.9046H46.4996C46.7382 23.9046 46.7713 23.6598 46.5924 23.1635" fill="#999999"></path><path id="Vector_2" d="M16.1115 10.3547L8.77589 8.70935C7.2584 8.16544 6.50297 7.46516 6.50297 6.5949C6.50297 5.50028 7.2584 4.94958 8.77589 4.94958H19.5374C20.9356 4.94958 21.6314 4.24249 21.6314 2.83513V0.496317C21.6314 0.163173 21.479 0 21.1808 0H8.53071C6.24454 0 4.38247 0.584702 2.93125 1.74051C1.34088 3.0051 0.539062 4.7796 0.539062 7.05722C0.539062 10.4363 2.68607 12.6255 6.96683 13.6181L14.0573 15.2771C15.7338 15.6714 16.5754 16.3717 16.5754 17.3915C16.5754 18.4861 15.7338 19.0368 14.0573 19.0368H2.80535C1.60594 19.0368 1.00955 19.6691 1.00955 20.9337V23.4833C1.00955 23.8096 1.16196 23.9728 1.44028 23.9728H13.6C16.085 23.9728 18.0796 23.4833 19.5706 22.511C21.3862 21.328 22.2941 19.5467 22.3007 17.1603C22.3007 13.5569 20.2399 11.2861 16.1181 10.3479" fill="#999999"></path><path id="Vector_3" d="M64.3593 8.61442C64.2732 9.55267 63.6702 10.3549 62.8021 10.6677C62.272 10.8716 61.3708 10.9736 60.0918 10.9736H54.1412V4.88185H60.0521C61.2846 4.88185 62.1924 4.99743 62.7822 5.22179C63.6503 5.52094 64.2533 6.3368 64.2997 7.27505H64.3328C64.3527 7.581 64.366 7.75097 64.366 7.83256V8.60763L64.3593 8.61442ZM70.5154 8.03652C70.5154 2.71301 67.4473 0.0478516 61.3244 0.0478516H50.1122C48.9128 0.0478516 48.3164 0.65975 48.3164 1.89034V23.7215C48.3164 23.8847 48.4291 23.9731 48.6477 23.9731H52.3454C53.5448 23.9731 54.1412 23.3612 54.1412 22.1306V15.9844H61.3244C67.4473 15.9844 70.5088 13.3328 70.5088 8.03652" fill="#999999"></path><path id="Vector_4" d="M77.9167 0.557507C77.9167 0.183569 77.7776 0 77.4926 0H73.4902C73.0263 0 72.7215 0.101983 72.589 0.305949C72.4167 0.639093 72.3438 1.01983 72.3769 1.39377V22.6334C72.3769 23.1977 72.4498 23.5581 72.6022 23.7212C72.7546 23.8912 73.0926 23.9728 73.6161 23.9728H77.433C77.6649 24.0068 77.8836 23.8436 77.9167 23.5989C77.9167 23.5581 77.9167 23.5173 77.9167 23.4697V0.557507Z" fill="#999999"></path><path id="Vector_5" d="M98.174 0.469122C98.174 0.163173 98.0613 0 97.8426 0H82.3232C81.2762 0 80.7461 0.632295 80.7461 1.89688V23.4017C80.7461 23.796 80.9316 23.9932 81.2895 23.9932H97.7565C98.0216 23.9932 98.1541 23.796 98.1541 23.4017V20.8793C98.1541 20.1518 98.1011 19.6963 98.0017 19.5127C97.8426 19.2068 97.4451 19.0436 96.8023 19.0436H85.9281V14.366H95.8083C96.027 14.4 96.2324 14.2368 96.2655 14.0125C96.2655 13.9785 96.2655 13.9377 96.2655 13.9037V10.2187C96.2655 9.78357 96.0468 9.56601 95.5962 9.56601H85.9281V4.85439H96.7095C97.339 4.85439 97.7366 4.7932 97.9089 4.67082C98.0812 4.54844 98.1673 4.1813 98.1673 3.583L98.1806 0.475921L98.174 0.469122Z" fill="#999999"></path><path id="Vector_6" d="M121.652 0.530312C121.652 0.176771 121.526 0 121.287 0H117.696C116.887 0 116.496 0.591501 116.496 1.7745V14.5564L106.616 0.319547C106.497 0.129178 106.291 0.0135977 106.066 0.0135977H102.004C101.136 0.0135977 100.698 0.605099 100.698 1.7881V23.2929C100.685 23.4697 100.698 23.6465 100.732 23.8232C100.791 23.9524 100.95 24.0136 101.215 24.0136H104.456C105.105 24.0136 105.516 23.8708 105.701 23.5785C105.861 23.3745 105.947 22.9122 105.947 22.2051V8.69575L116.251 23.7484C116.331 23.8912 116.529 23.966 116.847 23.966H120.485C121.082 23.966 121.446 23.8096 121.546 23.4969C121.638 23.0482 121.672 22.5858 121.638 22.1303V0.530312H121.652Z" fill="#999999"></path><path id="Vector_7" d="M139.292 10.3547L131.956 8.70935C130.439 8.16544 129.677 7.46516 129.683 6.5949C129.683 5.50028 130.439 4.94958 131.956 4.94958H142.718C144.116 4.94958 144.812 4.24249 144.812 2.83513V0.496317C144.812 0.163173 144.659 0 144.355 0H131.711C129.432 0 127.563 0.577904 126.105 1.74051C124.508 3.0051 123.713 4.7796 123.713 7.05722C123.713 10.4363 125.853 12.6255 130.141 13.6181L137.231 15.2771C138.908 15.6714 139.749 16.3717 139.749 17.3915C139.749 18.4861 138.908 19.0368 137.231 19.0368H125.986C124.786 19.0368 124.19 19.6691 124.19 20.9337V23.4833C124.19 23.8164 124.329 23.9796 124.614 23.9796H136.78C139.265 23.9796 141.26 23.4901 142.751 22.5178C144.56 21.3348 145.461 19.5535 145.461 17.1671C145.461 13.5637 143.4 11.2929 139.272 10.3547" fill="#999999"></path><path id="Vector_8" d="M15.5476 13.897C25.0236 18.901 32.187 17.2217 40.7021 11.0551C45.1949 7.81205 47.6335 13.2036 43.1804 16.0455C33.7575 22.0421 24.4206 20.322 15.541 13.897" fill="#999999"></path></g><defs><clipPath id="clip0_4249_1785"><rect width="144.923" height="24" fill="white" transform="translate(0.539062)"></rect></clipPath></defs></svg>