<svg xmlns="http://www.w3.org/2000/svg" width="116" height="36" viewBox="0 0 116 36" fill="none"><g id="selina"><path id="Vector" d="M63.7013 8.17207C64.5653 8.17207 65.3932 7.83908 66.0142 7.23611C66.6262 6.62414 66.9771 5.79619 66.9771 4.93223C66.9771 3.12332 65.5192 1.64739 63.7103 1.62939C62.8463 1.62939 62.0184 1.98938 61.4154 2.61035C60.8124 3.23131 60.4795 4.06827 60.4885 4.93223C60.4885 5.78719 60.8214 6.61514 61.4244 7.22711C62.0274 7.83908 62.8553 8.17207 63.7103 8.17207H63.7013Z" fill="#999999"></path><path id="Vector_2" d="M106.765 16.9462L104.767 26.7557C104.227 29.4555 102.355 30.8685 101.059 30.8685C100.267 30.8685 98.8362 30.8685 98.8362 27.2236C98.8362 22.8319 101.014 14.7593 104.83 14.7593C105.379 14.7863 105.892 15.0382 106.252 15.4522C106.612 15.8662 106.792 16.4062 106.756 16.9462H106.765ZM12.5125 32.2544C11.4415 32.6414 10.2716 32.6954 9.16465 32.4164C7.55374 32.0564 6.46479 30.5535 6.62678 28.9066C6.89677 27.3586 8.08471 26.1257 9.62363 25.8017C11.6755 25.3157 13.8084 25.3157 15.8603 25.8017V26.1437C15.8423 29.1405 14.5284 31.3724 12.5035 32.2184V32.2454L12.5125 32.2544ZM36.8743 14.2553C37.6392 14.2553 38.1522 14.8853 38.1522 16.0552C38.0532 19.682 35.3803 22.7149 31.7985 23.2638C32.6985 18.6471 34.6064 14.2553 36.8833 14.2553H36.8743ZM115.206 29.7435C114.468 30.4455 113.487 30.8415 112.461 30.8415C111.508 30.5895 110.869 29.6805 110.959 28.6996C110.995 28.3396 111.049 27.9886 111.121 27.6376L114.153 12.3024C114.18 12.1764 114.153 12.0414 114.063 11.9334C113.982 11.8254 113.856 11.7624 113.73 11.7624H108.259C108.007 11.7714 107.791 11.9604 107.746 12.2124L107.386 13.8593C106.819 12.3744 105.343 11.4384 103.759 11.5464C96.3703 11.5464 92.6625 20.663 92.3475 26.9716C91.5105 28.6636 89.8276 30.8415 88.3247 30.8415C86.8218 30.8415 86.5518 30.0495 86.5518 28.8886C86.5518 26.2607 88.6847 20.627 88.6847 16.8922C88.6847 13.1573 86.5968 11.6184 83.7529 11.6184C81.701 11.6184 79.7751 12.5814 78.5512 14.2283L78.9292 12.3384C78.9562 12.2124 78.9292 12.0774 78.8392 11.9694C78.7582 11.8614 78.6322 11.7984 78.5062 11.7984H73.1245C72.8275 11.8164 72.5845 12.0234 72.5215 12.3114L69.7136 26.1797C67.7607 29.0595 66.2668 30.8235 64.4849 30.8145C63.9629 30.7875 63.4769 30.5445 63.135 30.1485C62.793 29.7525 62.622 29.2395 62.667 28.7176C62.703 28.3486 62.757 27.9706 62.829 27.6106L65.8258 12.4824C65.8708 12.3024 65.8258 12.1224 65.7178 11.9784C65.6098 11.8344 65.4388 11.7534 65.2588 11.7444H60.0841C59.8141 11.7444 59.5891 11.9424 59.5441 12.2124L56.6913 26.3057C54.7384 29.1135 53.1545 30.8055 51.4265 30.8055C50.3556 30.7155 49.5456 29.7795 49.6266 28.7086C49.6626 28.3306 49.7166 27.9526 49.7886 27.5836L54.8104 3.10484C54.8464 2.95185 54.8104 2.78986 54.7024 2.67287C54.5944 2.55587 54.4414 2.50187 54.2884 2.51987L48.8797 3.28484C48.5737 3.34783 48.3397 3.59082 48.2947 3.8968L44.0829 24.4248C41.0051 29.1495 37.9992 31.2464 34.5344 31.2464C32.8425 31.2464 31.3575 30.0135 31.3575 27.5116C31.3575 26.5667 31.4295 25.7837 31.4295 25.7567H32.1765C32.7885 25.6847 33.4004 25.5497 33.9944 25.3697H34.1024C38.3772 24.1728 41.401 20.375 41.599 15.9382C41.599 13.5983 40.2761 11.4384 36.7843 11.4384C29.6926 11.4384 26.3628 18.2331 25.2379 23.7768H23.195C22.682 14.4353 13.1155 13.2833 13.1155 6.62367C13.0165 5.49873 13.4034 4.39178 14.1864 3.57282C14.9694 2.76286 16.0673 2.33088 17.1923 2.39388C18.9742 2.41188 20.4231 3.81581 20.5041 5.58872C20.6121 6.76766 20.2071 7.9466 19.3971 8.81056C19.3161 8.90055 19.2801 9.02655 19.2981 9.14354C19.3161 9.26054 19.3881 9.36853 19.4871 9.44053C19.9821 9.69251 20.5401 9.80051 21.0891 9.73751C21.998 9.71051 22.853 9.34153 23.5009 8.70256C24.2479 7.9376 24.6439 6.89365 24.5989 5.82271C24.5989 1.15194 19.1272 0 17.0213 0C11.2795 0 6.75278 3.53682 6.73478 8.39658C6.73478 14.1203 13.1065 17.0811 15.2034 22.5349C13.6374 22.2289 12.0535 22.0219 10.4696 21.9049C8.2737 21.7609 6.08681 22.1749 4.09791 23.1018C1.96502 24.0378 0.507088 26.0717 0.309098 28.4026C0.147106 30.2115 0.813073 32.0024 2.12701 33.2623C4.55689 35.6922 7.98571 35.9892 10.1456 35.9892C11.0996 36.0252 12.0535 35.9712 12.9985 35.8272C18.0382 35.0892 22.412 31.9394 23.123 26.1527H24.8599C24.8599 26.8097 24.7699 27.4306 24.7699 27.9796C24.7699 32.5964 27.5147 35.4042 31.6995 35.4042C36.3703 35.4762 40.7531 33.1273 43.273 29.1945V29.8065C43.273 33.4243 45.3698 35.1882 48.0427 35.3952C50.7156 35.6022 53.3974 34.8283 56.3313 30.4635C56.2863 31.7504 56.7543 33.0013 57.6452 33.9283C58.5362 34.8553 59.7691 35.3772 61.0471 35.3862C63.3869 35.5932 65.8258 35.1162 68.7687 31.0484L68.0307 34.4863C68.0037 34.6213 68.0307 34.7653 68.1117 34.8733C68.1927 34.9812 68.3277 35.0532 68.4627 35.0532H73.7724C74.0784 35.0442 74.3304 34.8283 74.4024 34.5313L77.2642 20.321C77.4082 19.448 77.6872 18.5931 78.0922 17.8011C78.4612 16.6852 79.4691 15.9022 80.6391 15.8212C81.854 15.8212 82.376 16.7482 82.394 18.1791C82.394 21.1759 80.3871 26.9087 80.3871 30.0675C80.2521 31.4984 80.7651 32.9204 81.773 33.9373C82.79 34.9543 84.2029 35.4762 85.6338 35.3502C87.5417 35.3502 90.1336 34.7023 92.5455 30.4635C92.8965 33.3073 95.3443 35.4222 98.2152 35.3502C101.032 35.1792 103.552 33.5323 104.839 31.0124C104.92 33.3793 106.828 35.2692 109.186 35.3502C112.039 35.5302 114.639 33.8473 115.71 30.1215C115.737 29.9865 115.674 29.8605 115.566 29.7795C115.458 29.6985 115.314 29.6985 115.197 29.7615L115.206 29.7435Z" fill="#999999"></path></g></svg>