<svg xmlns="http://www.w3.org/2000/svg" width="100" height="24" viewBox="0 0 100 24" fill="none"><path d="M0.222164 20.6585L2.14652 18.2717C2.41504 17.9286 2.90732 17.8838 3.22059 18.1822C4.26481 19.1816 5.68198 19.7336 7.3229 19.7336C8.38205 19.7336 9.12792 19.4651 9.12792 18.928C9.12792 18.4208 8.47155 18.0927 6.56211 17.6601C1.90784 16.6904 0.0879068 14.9898 0.0879068 12.2748C0.0879068 9.55984 2.5493 6.57634 8.11353 6.57634C11.5446 6.57634 13.6479 7.53106 14.9607 8.79905C15.259 9.08248 15.259 9.58968 14.9905 9.90295C14.4833 10.4847 13.6927 11.4096 13.1706 12.0362C12.8871 12.3643 12.4098 12.4091 12.0965 12.1107C11.0821 11.1709 9.79921 10.8278 8.36713 10.8278C6.93505 10.8278 6.39802 11.2306 6.39802 11.7378C6.39802 12.1704 7.02455 12.5135 8.7699 12.8119C13.4838 13.5876 15.453 15.2285 15.453 18.2418C15.453 21.2552 13.0811 24 7.66601 24C4.4289 24 2.01227 23.3884 0.281835 21.8668C-0.0612684 21.5684 -0.0911034 21.0165 0.192329 20.6585H0.222164ZM25.2687 6.57634C19.8984 6.57634 16.7657 9.79852 16.7657 15.2882C16.7657 20.7778 19.8835 24 25.2687 24C30.6539 24 33.7717 20.7778 33.7717 15.2882C33.7717 9.79852 30.639 6.57634 25.2687 6.57634ZM25.2239 19.1667C23.5979 19.1667 22.6283 18.033 22.6283 15.4224V15.1539C22.6283 12.6776 23.4935 11.4395 25.2239 11.4395C26.9544 11.4395 27.8942 12.4091 27.8942 15.2882C27.8942 18.1673 26.8798 19.1816 25.2239 19.1816V19.1667ZM47.272 6.7106C47.0035 6.63601 46.6455 6.57634 46.2129 6.57634C44.5272 6.57634 42.7073 7.3968 41.7376 8.72446C41.6481 8.8438 41.4691 8.78413 41.4542 8.63496L41.4094 7.6504C41.3945 7.23271 41.0663 6.90452 40.6785 6.90452H36.4419C36.0391 6.90452 35.7109 7.24763 35.7109 7.68024V22.8663C35.7109 23.2989 36.0391 23.642 36.4419 23.642H41.2901C41.6929 23.642 42.021 23.2989 42.021 22.8663V15.4075C42.021 13.1699 43.4233 12.0511 45.3029 12.0511C45.7355 12.0511 46.1383 12.0958 46.4814 12.2002C46.914 12.3196 47.3317 12.0063 47.3914 11.529L47.809 7.53106C47.8538 7.14321 47.63 6.78518 47.2869 6.69568L47.272 6.7106ZM75.123 16.8545L84.6404 16.8247C85.0133 16.8247 85.3266 16.5263 85.3714 16.1236C85.4161 15.7208 85.431 15.2733 85.431 14.8854C85.431 9.82836 82.6564 6.57634 77.3308 6.57634C72.0053 6.57634 68.9173 9.75377 68.9173 15.2882C68.9173 20.8226 71.9456 24 77.6739 24C81.0453 24 83.7304 22.732 84.8194 20.196C84.9984 19.7634 84.7896 19.2413 84.357 19.122L80.6425 17.9733C80.3292 17.8689 79.9712 18.0032 79.8071 18.3164C79.4193 19.0176 78.4496 19.4203 77.4203 19.4203C76.033 19.4203 75.1529 18.8982 74.8247 17.2722C74.7799 17.0634 74.9291 16.8694 75.123 16.8694V16.8545ZM74.7053 13.4831C75.0335 11.8273 75.854 11.1709 77.2711 11.1709C78.6883 11.1709 79.3447 11.9765 79.6132 13.4981C79.643 13.7069 79.4789 13.8859 79.2701 13.8859H75.0484C74.8247 13.8859 74.6606 13.692 74.7053 13.4831ZM99.9756 22.2845C100.005 22.6127 99.8563 22.9259 99.5877 23.0751C98.5137 23.6569 96.8877 24 95.5004 24C91.5025 24 89.2499 22.4635 89.2499 18.3015V11.5737H87.4449C87.0421 11.5737 86.7139 11.2306 86.7139 10.798V7.71007C86.7139 7.27746 87.0421 6.93436 87.4449 6.93436H89.2499V3.87627C89.2499 3.51825 89.4737 3.2199 89.7869 3.11547L94.6351 1.66848C95.0976 1.53422 95.56 1.90716 95.56 2.42927V6.93436H99.1104C99.5132 6.93436 99.8414 7.27746 99.8414 7.71007V10.798C99.8414 11.2306 99.5132 11.5737 99.1104 11.5737H95.56V17.2274C95.56 18.7938 96.2164 19.4054 97.5291 19.4054C98.0214 19.4054 98.4242 19.3457 98.7971 19.2264C99.2297 19.0921 99.6773 19.4054 99.722 19.8828L99.9756 22.2696V22.2845ZM56.2076 5.08459V0.788342C56.2076 0.266229 55.7452 -0.106709 55.2827 0.0275484L50.4345 1.47455C50.1213 1.56405 49.8975 1.87732 49.8975 2.23534V22.8215C49.8975 23.284 50.2406 23.6569 50.6732 23.6569H55.417C55.8496 23.6569 56.2076 23.269 56.1927 22.8066C56.1927 22.5978 56.4314 22.4784 56.5805 22.6127C57.3712 23.3585 58.9226 23.9851 60.7724 23.9851C64.7106 23.9851 66.9631 20.8077 66.9631 15.3478C66.9631 9.88803 64.6509 6.57634 60.7425 6.57634C59.4298 6.57634 57.7441 7.02387 56.7148 7.91892C56.506 8.09793 56.2076 7.94875 56.2076 7.66532V5.09951M58.8033 19.1667C57.1772 19.1667 56.2076 18.033 56.2076 15.4224V15.1539C56.2076 12.6776 57.0728 11.4395 58.8033 11.4395C60.5337 11.4395 61.4735 12.4091 61.4735 15.2882C61.4735 18.1673 60.4591 19.1667 58.8033 19.1667Z" fill="#999999"></path></svg>