<svg xmlns="http://www.w3.org/2000/svg" width="108" height="32" viewBox="0 0 108 32" fill="none"><g id="tabit"><g id="Vector"><path d="M23.5114 6.20775H19.9953V25.736H22.3851V31.1747H8.56307V25.736H10.9529V6.20775H7.43678V7.78179H0.902344V0.96099H29.5481V7.78179H23.5176V6.20775H23.5114ZM37.7067 23.842C37.5822 23.6437 37.0035 22.6647 35.2734 22.6647C33.5434 22.6647 32.8837 23.5541 32.8837 24.8146C32.8837 25.9535 33.8296 26.7213 35.068 26.7213C36.3065 26.7213 37.3333 25.9919 37.7067 25.384V23.842ZM48.5538 31.2259H39.7293L38.7399 29.4023C37.2151 31.469 34.6573 32.0001 33.1761 32.0001C29.2617 32.0001 25.0547 29.9334 25.0547 25.2305C25.0547 20.5276 28.9692 17.7698 33.6304 17.7698C36.0637 17.7698 37.5076 18.9472 37.7129 19.1903V17.7698C37.7129 15.9463 36.0202 15.4984 33.7985 15.4984C31.3652 15.4984 29.2244 16.5093 27.6562 17.3603L25.9261 12.6574C27.5753 11.6849 31.1225 9.77811 34.9124 9.77811C39.8599 9.77811 46.0894 11.6017 46.0894 18.1345V23.8548C46.0894 25.0065 47.3341 26.0431 48.5663 26.0431V31.2323L48.5538 31.2259ZM47.8756 15.428H48.9397V23.1574H47.8756V15.428ZM51.2859 23.1574H50.2093V15.428H51.2859V23.1574ZM75.7621 21.2442C75.6376 27.4891 72.053 31.6674 66.2404 31.6674C64.6784 31.6674 63.6142 31.4562 62.7865 31.1235V26.0303H65.7176C65.7176 26.0303 65.8172 16.5477 60.8884 15.3896C60.8884 17.4883 60.8946 26.7597 60.8946 30.3301V31.2195H50.4208V26.0303C51.7775 26.0303 52.8542 24.9937 52.8542 23.842V6.11817H50.9V0.95459H60.8759V12.5231C61.7845 11.4737 64.2553 10.6163 66.2778 10.6163C72.5446 10.6163 75.8865 15.8055 75.7621 21.2378" fill="#999999" style="mix-blend-mode:multiply"></path></g><g id="Vector_2"><path d="M84.5318 8.60597C81.8184 8.60597 79.8768 6.3601 79.8768 4.32538C79.8768 2.29066 81.5135 0 84.5318 0C87.55 0 89.274 2.37384 89.274 4.32538C89.274 6.65444 87.5936 8.60597 84.5318 8.60597ZM78.85 25.7859H80.356V15.8491H78.85V10.4103H88.9005V25.7795H90.4563V31.2183H78.8438V25.7795L78.85 25.7859ZM104.428 26.0739C104.981 26.0739 106.593 25.6964 107.097 25.3636V30.7192C106.095 31.2247 103.083 31.5126 102.106 31.5126C95.7212 31.5126 95.5407 28.083 95.5407 22.7211V15.35H93.0266V9.91127H95.5407V5.9698L103.077 3.49998V9.91127H107.097V15.35H103.077V22.7211C103.077 24.1415 102.766 26.0675 104.428 26.0675" fill="#999999" style="mix-blend-mode:multiply"></path></g></g></svg>