<svg xmlns="http://www.w3.org/2000/svg" width="96" height="68" viewBox="0 0 96 68" fill="none"><g id="ONE CLUB"><g id="Vector"><path d="M9.10741 18.3257C8.51481 17.7331 7.82278 17.4692 6.99883 17.4692H3.47167C2.64772 17.4692 1.95568 17.7655 1.39556 18.3257C0.800936 18.9203 0.537109 19.6123 0.537109 20.4363V30.1268C0.537109 30.9508 0.833407 31.6428 1.39353 32.2354C1.98612 32.828 2.67816 33.0918 3.50211 33.0918H7.02927C7.85322 33.0918 8.54525 32.7955 9.13785 32.2354C9.73044 31.6428 9.99427 30.9508 9.99427 30.1268V20.4363C9.9618 19.6123 9.6655 18.9203 9.10335 18.3277M6.10385 28.6108C6.10385 29.106 5.80755 29.3698 5.24742 29.3698C4.65483 29.3698 4.391 29.106 4.391 28.6108V21.8873C4.391 21.3921 4.6873 21.1283 5.24742 21.1283C5.84002 21.1283 6.10385 21.3921 6.10385 21.8873V28.6108Z" fill="#999999" style="mix-blend-mode:multiply"></path></g><g id="Vector_2"><path d="M11.8096 32.9277C11.909 33.0271 12.0409 33.0596 12.1728 33.0596H14.9085C15.0729 33.0596 15.1723 33.0271 15.2718 32.9277C15.3712 32.8282 15.4037 32.6963 15.4037 32.5644V25.7415L17.216 32.5319C17.3154 32.8952 17.5448 33.0596 17.908 33.0596H20.5788C20.7431 33.0596 20.8426 33.0271 20.942 32.9277C21.0415 32.8282 21.0739 32.6963 21.0739 32.5644V17.9647C21.0739 17.8328 21.009 17.7008 20.9096 17.6014C20.8101 17.502 20.6782 17.437 20.5463 17.437H17.8106C17.6462 17.437 17.5468 17.502 17.4473 17.6014C17.3479 17.7008 17.3154 17.8328 17.3154 17.9647V24.6232L15.767 17.9647C15.702 17.6014 15.4707 17.437 15.1074 17.437H12.2073C12.0754 17.437 11.9435 17.502 11.8441 17.6014C11.7446 17.7008 11.6797 17.8328 11.6797 17.9647V32.534C11.6797 32.6983 11.7122 32.8303 11.8116 32.9297" fill="#999999" style="mix-blend-mode:multiply"></path></g><g id="Vector_3"><path d="M23.1175 32.9275C23.217 33.027 23.3489 33.0594 23.4808 33.0594H31.2271C31.359 33.0594 31.491 33.027 31.5904 32.9275C31.6898 32.8281 31.7223 32.6962 31.7223 32.5642V29.8935C31.7223 29.7616 31.6574 29.6621 31.5904 29.5647C31.491 29.4653 31.359 29.4328 31.2271 29.4328H26.8435V27.1254H29.908C30.0724 27.1254 30.1718 27.0929 30.2713 26.9934C30.3707 26.894 30.4032 26.7966 30.4032 26.6647V23.9939C30.4032 23.862 30.3382 23.7301 30.2713 23.6307C30.1718 23.5312 30.0399 23.4988 29.908 23.4988H26.8435V21.2238H31.2271C31.359 21.2238 31.491 21.1913 31.5904 21.0919C31.6898 20.9924 31.7223 20.8605 31.7223 20.7286V18.0579C31.7223 17.9259 31.6898 17.8265 31.5904 17.7291C31.491 17.6296 31.359 17.5972 31.2271 17.5972H23.4808C23.3489 17.5972 23.217 17.6296 23.1175 17.7291C23.0181 17.8285 22.9531 17.9259 22.9531 18.0579V32.6596C22.9531 32.6921 23.0181 32.824 23.1175 32.9234" fill="#999999" style="mix-blend-mode:multiply"></path></g><g id="Vector_4"><path d="M38.7756 32.2033C39.3682 32.7959 40.0602 33.0597 40.8842 33.0597H44.4113C45.2353 33.0597 45.9273 32.7634 46.5199 32.2033C47.1125 31.6107 47.3763 30.9186 47.3763 30.0947V27.1276C47.3763 26.9957 47.3438 26.8638 47.2444 26.7644C47.145 26.6649 47.0131 26.6325 46.8811 26.6325H44.046C43.9141 26.6325 43.7822 26.6649 43.6828 26.7644C43.5833 26.8638 43.5184 26.9957 43.5184 27.1276V28.6112C43.5184 29.1063 43.2221 29.3702 42.6619 29.3702C42.0694 29.3702 41.8055 29.1063 41.8055 28.6112V21.8877C41.8055 21.3925 42.1018 21.1286 42.6619 21.1286C43.2545 21.1286 43.5184 21.3925 43.5184 21.8877V23.3712C43.5184 23.5356 43.5833 23.635 43.6828 23.7344C43.7822 23.8339 43.9141 23.8663 44.046 23.8663H46.8811C47.0455 23.8663 47.145 23.8339 47.2444 23.7344C47.3438 23.635 47.3763 23.5031 47.3763 23.3712V20.4386C47.3763 19.6147 47.08 18.9226 46.5199 18.3301C45.9273 17.7375 45.2353 17.4736 44.4113 17.4736H40.8842C40.0602 17.4736 39.3682 17.7699 38.8081 18.3301C38.2155 18.9226 37.9516 19.6147 37.9516 20.4386V30.1292C37.9192 30.9207 38.2155 31.6452 38.7756 32.2053" fill="#999999" style="mix-blend-mode:multiply"></path></g><g id="Vector_5"><path d="M49.1574 32.928C49.2568 33.0274 49.3887 33.0599 49.5206 33.0599H56.9362C57.1006 33.0599 57.2 33.0274 57.2995 32.928C57.3989 32.8286 57.4314 32.7311 57.4314 32.5992V29.9285C57.4314 29.7966 57.3664 29.6647 57.2995 29.5652C57.2 29.4658 57.0681 29.4333 56.9362 29.4333H52.8814V17.963C52.8814 17.7986 52.8164 17.6991 52.717 17.5997C52.6176 17.5002 52.4857 17.4678 52.3537 17.4678H49.5186C49.3867 17.4678 49.2548 17.5327 49.1554 17.6322C49.0559 17.7316 49.0234 17.8635 49.0234 17.9954V32.5972C49.0234 32.6966 49.0559 32.8286 49.1554 32.926" fill="#999999" style="mix-blend-mode:multiply"></path></g><g id="Vector_6"><path d="M59.377 32.2029C59.9696 32.7955 60.6616 33.0593 61.4856 33.0593H64.8808C65.7047 33.0593 66.3968 32.763 66.9894 32.2029C67.582 31.6103 67.8458 30.9183 67.8458 30.0943V17.9644C67.8458 17.8 67.8133 17.7006 67.7139 17.6012C67.6144 17.5017 67.4825 17.4692 67.3506 17.4692H64.6149C64.483 17.4692 64.3511 17.5342 64.2517 17.6336C64.1522 17.7331 64.1198 17.865 64.1198 17.9969V28.5439C64.1198 29.1364 63.8235 29.4003 63.2633 29.4003C62.6707 29.4003 62.4069 29.104 62.4069 28.5439V17.9969C62.4069 17.8325 62.3744 17.7331 62.275 17.6336C62.1756 17.5342 62.0437 17.5017 61.9117 17.5017H59.0766C58.9447 17.5017 58.8128 17.5667 58.7134 17.6661C58.6139 17.7655 58.5814 17.8974 58.5814 18.0294V30.1593C58.482 30.9183 58.7783 31.6428 59.3729 32.2029" fill="#999999" style="mix-blend-mode:multiply"></path></g><g id="Vector_7"><path d="M73.6801 20.7004H74.5041C75.0642 20.7004 75.3605 21.0291 75.3605 21.6887V22.4477C75.3605 23.1073 75.0642 23.436 74.5041 23.436H73.6801V20.7004ZM73.6801 27.1276H74.5711C75.1312 27.1276 75.4275 27.4563 75.4275 28.1159V28.9074C75.4275 29.5669 75.1312 29.8957 74.5711 29.8957H73.6801V27.1276ZM69.9886 32.9297C70.088 33.0292 70.22 33.0616 70.3519 33.0616H76.3184C77.1424 33.0616 77.8344 32.7653 78.427 32.2052C79.0196 31.6451 79.2834 30.9206 79.2834 30.1291V27.7567C79.2834 26.5045 78.6908 25.6806 77.5361 25.2848C78.6563 24.8891 79.2164 24.0652 79.2164 22.813V20.4406C79.2164 19.6166 78.9201 18.9246 78.36 18.332C77.7999 17.7394 77.0754 17.4756 76.2514 17.4756H70.3519C70.22 17.4756 70.088 17.5081 69.9886 17.6075C69.8892 17.7069 69.8242 17.8044 69.8242 17.9363V32.5056C69.8242 32.7024 69.8567 32.8343 69.9886 32.9338" fill="#999999" style="mix-blend-mode:multiply"></path></g><g id="Vector_8"><path d="M1.43009 50.3965C1.52953 50.4959 1.66144 50.5284 1.79335 50.5284H4.62847C4.76039 50.5284 4.8923 50.4959 4.99174 50.3965C5.09118 50.2971 5.15612 50.1651 5.15612 50.0332V45.0226H8.45192C8.58384 45.0226 8.71575 44.9901 8.81519 44.8906C8.91463 44.7912 8.94711 44.6938 8.94711 44.5619V41.8911C8.94711 41.7592 8.88216 41.6273 8.81519 41.5279C8.71575 41.4284 8.58384 41.396 8.45192 41.396H5.1541V38.6603H9.27384C9.43823 38.6603 9.53767 38.6278 9.63711 38.5284C9.73656 38.4289 9.76903 38.297 9.76903 38.1651V35.4944C9.76903 35.3625 9.73656 35.263 9.63711 35.1656C9.53767 35.0662 9.40576 35.0337 9.27384 35.0337H1.79132C1.65941 35.0337 1.5275 35.0662 1.42806 35.1656C1.32861 35.265 1.26367 35.3625 1.26367 35.4944V50.0961C1.26367 50.1611 1.32861 50.293 1.42806 50.3924" fill="#999999" style="mix-blend-mode:multiply"></path></g><g id="Vector_9"><path d="M20.2487 35.7949C19.6561 35.2023 18.9641 34.9385 18.1401 34.9385H14.6454C13.8215 34.9385 13.1294 35.2348 12.5693 35.7949C11.9767 36.3875 11.7129 37.0795 11.7129 37.9035V47.594C11.7129 48.418 12.0092 49.11 12.5693 49.7026C13.1619 50.2952 13.8539 50.559 14.6779 50.559H18.205C19.029 50.559 19.721 50.2627 20.3136 49.7026C20.9062 49.11 21.17 48.418 21.17 47.594V37.9035C21.1376 37.0795 20.8413 36.3875 20.2467 35.7949M17.2796 46.1125C17.2796 46.6077 16.9833 46.8715 16.4232 46.8715C15.8306 46.8715 15.5668 46.6077 15.5668 46.1125V39.389C15.5668 38.8938 15.8631 38.63 16.4232 38.63C17.0158 38.63 17.2796 38.8938 17.2796 39.389V46.1125Z" fill="#999999" style="mix-blend-mode:multiply"></path></g><g id="Vector_10"><path d="M26.8108 38.5972H27.6672C28.2598 38.5972 28.5581 38.926 28.5581 39.5856V40.509C28.5581 41.1685 28.2618 41.4973 27.6672 41.4973H26.8108V38.5972V38.5972ZM23.1192 50.3984C23.2187 50.4978 23.3506 50.5303 23.4825 50.5303H26.3176C26.482 50.5303 26.5814 50.4978 26.6809 50.3984C26.7803 50.2989 26.8128 50.167 26.8128 50.0351V45.1564H27.5718C28.2314 45.1564 28.5601 45.4851 28.5601 46.1447V49.2436C28.5601 50.1001 28.8889 50.5283 29.516 50.5283H32.0548C32.3511 50.5283 32.5155 50.3964 32.5155 50.1325C32.5155 50.1001 32.483 49.9681 32.4506 49.7043C32.4181 49.473 32.3856 49.2761 32.3856 49.1442V45.5521C32.3856 44.2999 31.793 43.476 30.6383 43.0802C31.8255 42.6845 32.3856 41.8606 32.3856 40.6084V37.8727C32.3856 37.0488 32.0893 36.3567 31.5292 35.7641C30.9366 35.1715 30.2446 34.9077 29.4206 34.9077H23.4886C23.3567 34.9077 23.2248 34.9402 23.1253 35.0396C23.0259 35.1391 22.9609 35.2365 22.9609 35.3684V49.9702C22.9609 50.167 23.0259 50.2989 23.1253 50.3984" fill="#999999" style="mix-blend-mode:multiply"></path></g><g id="Vector_11"><path d="M1.36152 67.1417C1.95411 67.7343 2.64615 67.9982 3.4701 67.9982H6.99928C7.82323 67.9982 8.51527 67.7019 9.10787 67.1417C9.70046 66.5491 9.96429 65.8571 9.96429 65.0332V62.0661C9.96429 61.9342 9.93182 61.8023 9.83237 61.7029C9.73293 61.6034 9.60102 61.5709 9.4691 61.5709H6.63399C6.50207 61.5709 6.37016 61.6034 6.27072 61.7029C6.17128 61.8023 6.10633 61.9342 6.10633 62.0661V63.5496C6.10633 64.0448 5.81004 64.3086 5.24991 64.3086C4.65732 64.3086 4.39349 64.0448 4.39349 63.5496V56.8261C4.39349 56.3309 4.68979 56.0671 5.24991 56.0671C5.84251 56.0671 6.10633 56.3309 6.10633 56.8261V58.3096C6.10633 58.474 6.17128 58.5735 6.27072 58.6729C6.37016 58.7723 6.50207 58.8048 6.63399 58.8048H9.4691C9.63349 58.8048 9.73293 58.7723 9.83237 58.6729C9.93182 58.5735 9.96429 58.4416 9.96429 58.3096V55.3771C9.96429 54.5532 9.66799 53.8611 9.10787 53.2685C8.51527 52.6759 7.82323 52.4121 6.99928 52.4121H3.47213C2.64818 52.4121 1.95614 52.7084 1.39602 53.2685C0.801396 53.8591 0.537569 54.5511 0.537569 55.3751V65.0656C0.505098 65.8571 0.801396 66.5491 1.36152 67.1417" fill="#999999" style="mix-blend-mode:multiply"></path></g><g id="Vector_12"><path d="M21.1374 67.2087C21.1049 66.9774 21.0725 66.7805 21.0725 66.6486V63.0565C21.0725 61.8043 20.4799 60.9804 19.3251 60.5846C20.5123 60.1889 21.0725 59.3649 21.0725 58.1128V55.3771C21.0725 54.5532 20.7762 53.8611 20.216 53.2685C19.6235 52.6759 18.9314 52.4121 18.1075 52.4121H12.1409C12.009 52.4121 11.8771 52.4446 11.7777 52.544C11.6782 52.6435 11.6133 52.7409 11.6133 52.8728V67.4746C11.6133 67.6065 11.6782 67.7384 11.7777 67.8378C11.8771 67.9373 12.009 67.9697 12.1409 67.9697H14.9761C15.1404 67.9697 15.2399 67.9373 15.3393 67.8378C15.4388 67.7384 15.4712 67.6065 15.4712 67.4746V62.5958H16.2302C16.8898 62.5958 17.2186 62.9246 17.2186 63.5841V66.6831C17.2186 67.5395 17.5473 67.9677 18.1744 67.9677H20.7133C21.0096 67.9677 21.1739 67.8358 21.1739 67.572C21.1739 67.572 21.1739 67.4401 21.1415 67.2087M17.2186 57.9464C17.2186 58.6059 16.9223 58.9347 16.3277 58.9347H15.4712V56.0346H16.3277C16.9202 56.0346 17.2186 56.3634 17.2186 57.023V57.9464Z" fill="#999999" style="mix-blend-mode:multiply"></path></g><g id="Vector_13"><path d="M23.1175 67.8342C23.217 67.9337 23.3489 67.9662 23.4808 67.9662H31.2271C31.359 67.9662 31.491 67.9337 31.5904 67.8342C31.6898 67.7348 31.7223 67.6029 31.7223 67.471V64.8002C31.7223 64.6683 31.6898 64.5689 31.5904 64.4715C31.491 64.372 31.359 64.3396 31.2271 64.3396H26.8435V62.0321H29.908C30.0724 62.0321 30.1718 61.9996 30.2713 61.9002C30.3707 61.8007 30.4032 61.7033 30.4032 61.5714V58.8357C30.4032 58.7038 30.3707 58.5719 30.2713 58.4725C30.1718 58.373 30.0399 58.3406 29.908 58.3406H26.8435V56.0656H31.2271C31.359 56.0656 31.491 56.0331 31.5904 55.9336C31.6898 55.8342 31.7223 55.7023 31.7223 55.5704V52.8996C31.7223 52.7677 31.6898 52.6683 31.5904 52.5709C31.491 52.4714 31.359 52.439 31.2271 52.439H23.4808C23.3489 52.439 23.217 52.4714 23.1175 52.5709C23.0181 52.6703 22.9531 52.7677 22.9531 52.8996V67.5014C22.9531 67.6333 23.0181 67.7328 23.1175 67.8302" fill="#999999" style="mix-blend-mode:multiply"></path></g><g id="Vector_14"><path d="M42.5978 67.0437L41.2787 52.8376C41.2462 52.5413 41.0474 52.377 40.7186 52.377H34.6546C34.3259 52.377 34.1595 52.5413 34.127 52.8376L32.8079 67.0437C32.7754 67.34 32.7754 67.5043 32.7754 67.5713C32.7754 67.7032 32.8079 67.8027 32.9073 67.8676C33.0067 67.9671 33.1042 67.9995 33.2361 67.9995H36.1037C36.4324 67.9995 36.5988 67.8351 36.6313 67.4719L36.8282 64.3405H38.2447L38.4416 67.4719C38.474 67.8006 38.6729 67.9995 39.0017 67.9995H42.1656C42.2975 67.9995 42.4294 67.9671 42.5288 67.8676C42.6283 67.7682 42.6608 67.6708 42.6608 67.5388C42.6283 67.5064 42.6283 67.342 42.5958 67.0437M36.9601 61.6048L37.2889 57.2212C37.2889 57.0244 37.3538 56.9574 37.4857 56.9574C37.6176 56.9574 37.6826 57.0568 37.6826 57.2212L37.9789 61.6048H36.9581H36.9601Z" fill="#999999" style="mix-blend-mode:multiply"></path></g><g id="Vector_15"><path d="M42.8948 56.0998C42.9942 56.1993 43.1261 56.2317 43.258 56.2317H45.4336V67.4707C45.4336 67.6026 45.4985 67.7346 45.598 67.834C45.6974 67.9334 45.8293 67.9659 45.9613 67.9659H48.7964C48.9283 67.9659 49.0602 67.9334 49.1596 67.834C49.2591 67.7346 49.324 67.6026 49.324 67.4707V56.2317H51.4996C51.6315 56.2317 51.7634 56.1993 51.8628 56.0998C51.9623 56.0004 52.0272 55.8685 52.0272 55.7366V52.9014C52.0272 52.737 51.9623 52.6376 51.8628 52.5382C51.7634 52.4387 51.6315 52.4062 51.4996 52.4062H43.2601C43.1282 52.4062 42.9962 52.4712 42.8968 52.5706C42.7974 52.6701 42.7324 52.802 42.7324 52.9339V55.769C42.7324 55.8685 42.7974 56.0004 42.8968 56.0978" fill="#999999" style="mix-blend-mode:multiply"></path></g><g id="Vector_16"><path d="M53.473 67.834C53.5724 67.9334 53.7043 67.9659 53.8362 67.9659H56.6714C56.8357 67.9659 56.9352 67.9334 57.0346 67.834C57.1341 67.7346 57.1665 67.6026 57.1665 67.4707V52.9014C57.1665 52.737 57.1016 52.6376 57.0022 52.5382C56.9027 52.4387 56.7708 52.4062 56.6389 52.4062H53.8038C53.6719 52.4062 53.5399 52.4712 53.4405 52.5706C53.3411 52.6701 53.3086 52.802 53.3086 52.9339V67.5032C53.3411 67.6351 53.3735 67.7346 53.473 67.832" fill="#999999" style="mix-blend-mode:multiply"></path></g><g id="Vector_17"><path d="M58.88 53.3309L60.4285 67.5369C60.461 67.8332 60.6254 67.9976 60.9562 67.9976H66.3626C66.6913 67.9976 66.8902 67.8332 66.9227 67.5369L68.4712 53.3309C68.5036 53.0346 68.5036 52.8702 68.5036 52.8032C68.5036 52.6713 68.4712 52.5719 68.3717 52.5069C68.2723 52.4075 68.1749 52.375 68.0429 52.375H65.1754C64.8791 52.375 64.6802 52.5719 64.6477 52.9027L63.9232 62.5283C63.9232 62.6926 63.8583 62.7596 63.7263 62.7596C63.5944 62.7596 63.5295 62.6947 63.5295 62.5283L62.8374 52.9027C62.805 52.5394 62.6406 52.375 62.3098 52.375H59.3103C59.1784 52.375 59.0789 52.4075 58.9815 52.5069C58.8821 52.6064 58.8496 52.7038 58.8496 52.8032C58.8496 52.8682 58.8821 53.0346 58.8821 53.3309" fill="#999999" style="mix-blend-mode:multiply"></path></g><g id="Vector_18"><path d="M70.221 67.834C70.3205 67.9334 70.4524 67.9659 70.5843 67.9659H73.4194C73.5838 67.9659 73.6832 67.9334 73.7827 67.834C73.8821 67.7346 73.9146 67.6026 73.9146 67.4707V52.9014C73.9146 52.737 73.8497 52.6376 73.7502 52.5382C73.6508 52.4387 73.5189 52.4062 73.3869 52.4062H70.5518C70.4199 52.4062 70.288 52.4712 70.1886 52.5706C70.0891 52.6701 70.0566 52.802 70.0566 52.9339V67.5032C70.0891 67.6351 70.1216 67.7346 70.221 67.832" fill="#999999" style="mix-blend-mode:multiply"></path></g><g id="Vector_19"><path d="M75.4924 56.0998C75.5919 56.1993 75.7238 56.2317 75.8557 56.2317H78.0313V67.4707C78.0313 67.6026 78.0962 67.7346 78.1956 67.834C78.2951 67.9334 78.427 67.9659 78.5589 67.9659H81.394C81.5259 67.9659 81.6579 67.9334 81.7573 67.834C81.8567 67.7346 81.9217 67.6026 81.9217 67.4707V56.2317H84.0972C84.2291 56.2317 84.3611 56.1993 84.4605 56.0998C84.5599 56.0004 84.6249 55.8685 84.6249 55.7366V52.9014C84.6249 52.737 84.5599 52.6376 84.4605 52.5382C84.3611 52.4387 84.2291 52.4062 84.0972 52.4062H75.8577C75.7258 52.4062 75.5939 52.4712 75.4945 52.5706C75.395 52.6701 75.3301 52.802 75.3301 52.9339V55.769C75.3301 55.8685 75.395 56.0004 75.4945 56.0978" fill="#999999" style="mix-blend-mode:multiply"></path></g><g id="Vector_20"><path d="M85.7764 53.5949L88.644 63.4499V67.5047C88.644 67.6366 88.7089 67.7685 88.8083 67.8679C88.9078 67.9674 89.0397 67.9999 89.1716 67.9999H92.0067C92.1386 67.9999 92.2706 67.9674 92.37 67.8679C92.4694 67.7685 92.5344 67.6366 92.5344 67.5047V63.4499L95.3025 53.6274C95.4344 53.2317 95.4669 52.9354 95.4669 52.8035C95.4669 52.5396 95.335 52.4077 95.0712 52.4077H92.2361C91.9398 52.4077 91.7754 52.5721 91.7084 52.8684L90.8845 56.7913C90.852 56.8907 90.785 56.9232 90.7201 56.9232C90.6206 56.9232 90.5882 56.8907 90.5557 56.7913L89.6323 52.8684C89.5673 52.5721 89.3685 52.4077 89.1046 52.4077H86.1051C85.8088 52.4077 85.6769 52.5396 85.6769 52.8035C85.612 52.9678 85.6445 53.2317 85.7764 53.5949Z" fill="#999999" style="mix-blend-mode:multiply"></path></g><g id="Vector_21"><path d="M23.1175 15.4586C23.217 15.558 23.3489 15.5905 23.4808 15.5905H31.2271C31.359 15.5905 31.491 15.558 31.5904 15.4586C31.6898 15.3592 31.7223 15.2272 31.7223 15.0953V12.4246C31.7223 12.2927 31.6898 12.1932 31.5904 12.0958C31.491 11.9964 31.359 11.9639 31.2271 11.9639H26.8435V9.65646H29.908C30.0724 9.65646 30.1718 9.62398 30.2713 9.52454C30.3707 9.4251 30.4032 9.32769 30.4032 9.19577V6.52504C30.4032 6.39313 30.3707 6.26121 30.2713 6.16177C30.1718 6.06233 30.0399 6.02986 29.908 6.02986H26.8435V3.75486H31.2271C31.359 3.75486 31.491 3.72239 31.5904 3.62295C31.6898 3.52351 31.7223 3.39159 31.7223 3.25968V0.593006C31.7223 0.461092 31.6898 0.36165 31.5904 0.264237C31.491 0.164795 31.359 0.132324 31.2271 0.132324H23.4808C23.3489 0.132324 23.217 0.164795 23.1175 0.264237C23.0181 0.36368 22.9531 0.461092 22.9531 0.593006V15.1948C22.9531 15.2273 23.0181 15.3592 23.1175 15.4586" fill="#999999" style="mix-blend-mode:multiply"></path></g><g id="Vector_22"><path d="M11.8096 15.4582C11.9091 15.5576 12.041 15.5901 12.1729 15.5901H15.008C15.1724 15.5901 15.2719 15.5576 15.3713 15.4582C15.4707 15.3587 15.5032 15.2268 15.5032 15.0949V9.62357H17.283V15.0949C17.283 15.2268 17.3155 15.3587 17.4149 15.4582C17.5144 15.5576 17.6463 15.5901 17.7782 15.5901H20.6133C20.7777 15.5901 20.8772 15.5576 20.9766 15.4582C21.076 15.3587 21.1085 15.2268 21.1085 15.0949V0.495182C21.1085 0.330798 21.0436 0.231355 20.9441 0.131913C20.8447 0.0324709 20.7128 0 20.5809 0H17.7457C17.6138 0 17.4819 0.0649419 17.3825 0.164384C17.3175 0.229326 17.283 0.361239 17.283 0.493152V5.93203H15.5357V0.495182C15.5357 0.330798 15.4707 0.231355 15.3713 0.131913C15.2719 0.0324709 15.1399 0 15.008 0H12.1729C12.041 0 11.9091 0.0649419 11.8096 0.164384C11.7102 0.229326 11.6777 0.361239 11.6777 0.493152V15.0625C11.6777 15.2268 11.7102 15.3587 11.8096 15.4582" fill="#999999" style="mix-blend-mode:multiply"></path></g><g id="Vector_23"><path d="M0.769197 3.72425C0.868639 3.8237 1.00055 3.85617 1.13247 3.85617H3.4379V15.0952C3.4379 15.2271 3.50284 15.359 3.60229 15.4584C3.70173 15.5579 3.83364 15.5903 3.96555 15.5903H6.80067C6.93258 15.5903 7.0645 15.5579 7.16394 15.4584C7.26338 15.359 7.32832 15.2271 7.32832 15.0952V3.85617H9.50388C9.63579 3.85617 9.7677 3.8237 9.86715 3.72425C9.96659 3.62481 10.0315 3.4929 10.0315 3.36099V0.527896C10.0315 0.363512 9.96659 0.26407 9.86715 0.164628C9.7677 0.0651858 9.63579 0.0327148 9.50388 0.0327148H1.09797C0.966052 0.0327148 0.834139 0.0996862 0.736726 0.197099C0.639313 0.294512 0.570312 0.428454 0.570312 0.560367V3.39549C0.602783 3.49493 0.635254 3.62684 0.767167 3.72425" fill="#999999" style="mix-blend-mode:multiply"></path></g></g></svg>