<svg xmlns="http://www.w3.org/2000/svg" width="86" height="55" viewBox="0 0 86 55" fill="none"><g id="Frame 1198"><g id="Tipa"><g id="Vector"><path d="M84.2761 3.99031C84.2761 5.95419 82.7747 7.49768 80.8219 7.49768C78.8691 7.49768 77.3496 5.95419 77.3496 3.99031C77.3496 2.02643 78.8874 0.526855 80.8219 0.526855C82.7564 0.526855 84.2761 2.07035 84.2761 3.99031ZM78.2161 3.99031C78.2161 5.5338 79.3268 6.7573 80.8464 6.7573C82.3659 6.7573 83.4155 5.5338 83.4155 4.00913C83.4155 2.48446 82.3232 1.22331 80.828 1.22331C79.3329 1.22331 78.2161 2.47191 78.2161 3.99031ZM80.2911 5.8036H79.5099V2.34015C79.8212 2.27741 80.2483 2.23348 80.8036 2.23348C81.4383 2.23348 81.7313 2.34015 81.9754 2.48446C82.1585 2.62877 82.3048 2.90484 82.3048 3.24366C82.3048 3.62639 82.018 3.92129 81.6031 4.04678V4.0907C81.9326 4.21618 82.1157 4.47344 82.2194 4.93774C82.3232 5.46479 82.3841 5.67811 82.4635 5.8036H81.6214C81.5176 5.67811 81.4567 5.35812 81.3529 4.95656C81.2919 4.57383 81.0843 4.40441 80.651 4.40441H80.2789V5.79732L80.2911 5.8036ZM80.3094 3.83972H80.6816C81.1149 3.83972 81.4627 3.68914 81.4627 3.3315C81.4627 3.01151 81.237 2.80445 80.7427 2.80445C80.5352 2.80445 80.3948 2.82328 80.3094 2.84837V3.83972V3.83972Z" fill="#999999" style="mix-blend-mode:multiply"></path></g><g id="Vector_2"><path d="M30.3771 3.24902C29.3092 3.24902 28.4121 4.17136 28.4121 5.26937V34.2632H30.3771C31.4451 34.2632 32.3421 33.3346 32.3421 32.2429V3.24902H30.3771V3.24902Z" fill="#999999" style="mix-blend-mode:multiply"></path></g><g id="Vector_3"><path d="M82.8011 47.5728L82.7949 47.5789V47.5851L82.8011 47.5728Z" fill="#999999" style="mix-blend-mode:multiply"></path></g><g id="Vector_4"><path d="M2.46632 3.24902C1.44109 3.24902 0.568359 4.13998 0.568359 5.20035V7.31481H10.5155V34.2695H12.4927C13.5607 34.2695 14.4577 33.3409 14.4577 32.2491V7.31481H22.5192C23.4834 7.31481 24.3073 6.53052 24.4049 5.56427C24.411 5.50152 24.4171 3.2553 24.4171 3.2553H2.46632V3.24902Z" fill="#999999" style="mix-blend-mode:multiply"></path></g><g id="Vector_5"><path d="M54.3262 12.2729L54.329 12.2757L54.3262 12.2729Z" fill="#999999" style="mix-blend-mode:multiply"></path></g><g id="Vector_6"><path d="M55.9203 5.53289C54.2116 3.99567 51.9354 3.24902 48.6462 3.24902H38.3146C37.2467 3.24902 36.3496 4.17763 36.3496 5.26937V34.2632H38.3146C39.3826 34.2632 40.2796 33.3409 40.2796 32.2429V7.30854H48.6401C50.7698 7.32109 52.0942 7.60971 52.979 8.4442C53.8273 9.23477 54.3094 10.4708 54.3277 12.2716C54.3155 13.9029 53.7723 15.1264 52.802 16.0048C51.8317 16.8769 50.5441 17.2095 48.6645 17.2158H43.1172V19.2424C43.1172 20.3404 44.0204 21.2627 45.0822 21.2627C45.0822 21.2627 47.7674 21.269 48.6645 21.2627C52.0575 21.2314 54.114 20.3467 55.8228 18.8283C57.5925 17.2534 58.5933 14.957 58.5994 12.2716C58.5994 9.45437 57.7084 7.12658 55.9265 5.52662" fill="#999999" style="mix-blend-mode:multiply"></path></g><g id="Vector_7"><path d="M85.4196 37.438C85.267 35.2608 84.8032 33.184 83.9367 31.2703L71.817 4.81762C71.3654 3.81999 70.6636 3.29922 69.73 3.24902H69.6505H69.5163C68.5826 3.29922 67.887 3.82627 67.4293 4.81762L53.9609 34.2632H56.6704C57.3966 34.2632 58.4036 33.8428 58.8491 32.6695L69.614 9.43555L75.8508 22.8941H69.7605C68.717 22.8941 68.0334 23.4525 67.4354 24.8768L66.5932 26.8595H77.6877C77.6877 26.8595 79.7564 31.1951 80.3789 32.6695C80.4582 32.8515 80.5498 33.0523 80.6047 33.184C81.3309 34.7777 81.6482 36.5094 81.6543 38.2914C81.6543 41.5289 80.4582 44.6096 78.2918 46.9814C78.2369 47.0441 77.9378 47.3641 77.9378 47.3641C75.7043 49.6166 72.7934 50.884 69.6933 50.9907H68.8634C67.8382 50.9844 67.173 51.5365 66.575 52.9357L65.7572 54.8808H69.7116C74.7462 54.7365 79.4819 52.2142 82.4294 47.979C82.4477 47.9539 82.7162 47.4959 82.7406 47.4645C84.5042 44.7414 85.4318 41.5603 85.4318 38.2851C85.4318 38.0467 85.4256 37.7643 85.4012 37.438" fill="#999999" style="mix-blend-mode:multiply"></path></g></g></g></svg>