<svg xmlns="http://www.w3.org/2000/svg" width="92" height="22" viewBox="0 0 92 22" fill="none"><path d="M0.203651 18.9369L1.96765 16.749C2.21379 16.4345 2.66504 16.3935 2.9522 16.667C3.90941 17.5832 5.20848 18.0891 6.71266 18.0891C7.68354 18.0891 8.36726 17.843 8.36726 17.3507C8.36726 16.8858 7.76559 16.5849 6.01527 16.1884C1.74886 15.2995 0.0805812 13.7407 0.0805812 11.2519C0.0805812 8.76319 2.33686 6.02831 7.4374 6.02831C10.5825 6.02831 12.5106 6.90347 13.714 8.06579C13.9874 8.32561 13.9874 8.79054 13.7413 9.0777C13.2764 9.611 12.5516 10.4588 12.073 11.0331C11.8132 11.334 11.3756 11.375 11.0885 11.1015C10.1586 10.24 8.98261 9.92551 7.66987 9.92551C6.35713 9.92551 5.86485 10.2947 5.86485 10.7597C5.86485 11.1562 6.43917 11.4707 8.03908 11.7442C12.3602 12.4553 14.1652 13.9595 14.1652 16.7217C14.1652 19.4839 11.991 22 7.02717 22C4.05983 22 1.84458 21.4393 0.258348 20.0446C-0.0561627 19.7711 -0.0835115 19.2651 0.176302 18.9369H0.203651ZM23.163 6.02831C18.2402 6.02831 15.3686 8.98198 15.3686 14.0142C15.3686 19.0463 18.2265 22 23.163 22C28.0994 22 30.9574 19.0463 30.9574 14.0142C30.9574 8.98198 28.0857 6.02831 23.163 6.02831ZM23.1219 17.5695C21.6314 17.5695 20.7426 16.5302 20.7426 14.1372V13.8911C20.7426 11.6211 21.5357 10.4862 23.1219 10.4862C24.7082 10.4862 25.5696 11.375 25.5696 14.0142C25.5696 16.6533 24.6398 17.5832 23.1219 17.5832V17.5695ZM43.3327 6.15138C43.0865 6.08301 42.7584 6.02831 42.3618 6.02831C40.8166 6.02831 39.1483 6.7804 38.2595 7.99742C38.1774 8.10682 38.0133 8.05212 37.9997 7.91538L37.9586 7.01287C37.945 6.62998 37.6441 6.32915 37.2886 6.32915H33.4051C33.0359 6.32915 32.735 6.64366 32.735 7.04022V20.9607C32.735 21.3573 33.0359 21.6718 33.4051 21.6718H37.8493C38.2185 21.6718 38.5193 21.3573 38.5193 20.9607V14.1235C38.5193 12.0724 39.8047 11.0468 41.5277 11.0468C41.9242 11.0468 42.2934 11.0878 42.6079 11.1836C43.0045 11.293 43.3874 11.0058 43.4421 10.5682L43.825 6.90347C43.866 6.54794 43.6609 6.21975 43.3464 6.13771L43.3327 6.15138ZM68.8628 15.45L77.587 15.4226C77.9289 15.4226 78.2161 15.1491 78.2571 14.7799C78.2981 14.4107 78.3118 14.0005 78.3118 13.6449C78.3118 9.00933 75.7683 6.02831 70.8866 6.02831C66.0048 6.02831 63.1742 8.94096 63.1742 14.0142C63.1742 19.0874 65.9501 22 71.2011 22C74.2915 22 76.7529 20.8377 77.7511 18.513C77.9152 18.1165 77.7238 17.6379 77.3272 17.5285L73.9223 16.4755C73.6351 16.3798 73.307 16.5029 73.1565 16.7901C72.801 17.4328 71.9122 17.802 70.9686 17.802C69.6969 17.802 68.8901 17.3234 68.5893 15.8328C68.5483 15.6414 68.685 15.4636 68.8628 15.4636V15.45ZM68.4799 12.3596C68.7807 10.8417 69.5328 10.24 70.8319 10.24C72.131 10.24 72.7326 10.9784 72.9788 12.3732C73.0061 12.5647 72.8557 12.7288 72.6643 12.7288H68.7944C68.5893 12.7288 68.4389 12.551 68.4799 12.3596ZM91.6443 20.4274C91.6717 20.7283 91.5349 21.0154 91.2888 21.1522C90.3042 21.6855 88.8137 22 87.542 22C83.8773 22 81.8124 20.5915 81.8124 16.7764V10.6092H80.1578C79.7886 10.6092 79.4878 10.2947 79.4878 9.89816V7.06756C79.4878 6.67101 79.7886 6.3565 80.1578 6.3565H81.8124V3.55325C81.8124 3.22506 82.0175 2.95157 82.3047 2.85585L86.7489 1.52944C87.1728 1.40637 87.5967 1.74823 87.5967 2.22683V6.3565H90.8512C91.2204 6.3565 91.5213 6.67101 91.5213 7.06756V9.89816C91.5213 10.2947 91.2204 10.6092 90.8512 10.6092H87.5967V15.7918C87.5967 17.2276 88.1984 17.7883 89.4017 17.7883C89.853 17.7883 90.2222 17.7336 90.564 17.6242C90.9606 17.5011 91.3708 17.7883 91.4119 18.2259L91.6443 20.4138V20.4274ZM51.5236 4.66087V0.722647C51.5236 0.244043 51.0997 -0.0978168 50.6758 0.0252527L46.2317 1.35167C45.9445 1.43372 45.7394 1.72088 45.7394 2.04906V20.9197C45.7394 21.3436 46.0539 21.6855 46.4504 21.6855H50.7989C51.1955 21.6855 51.5236 21.33 51.51 20.906C51.51 20.7146 51.7288 20.6052 51.8655 20.7283C52.5902 21.412 54.0124 21.9863 55.708 21.9863C59.3181 21.9863 61.3829 19.0737 61.3829 14.0689C61.3829 9.06402 59.2634 6.02831 55.6807 6.02831C54.4773 6.02831 52.9321 6.43854 51.9886 7.25901C51.7971 7.4231 51.5236 7.28635 51.5236 7.02654V4.67455M53.903 17.5695C52.4125 17.5695 51.5236 16.5302 51.5236 14.1372V13.8911C51.5236 11.6211 52.3168 10.4862 53.903 10.4862C55.4892 10.4862 56.3507 11.375 56.3507 14.0142C56.3507 16.6533 55.4209 17.5695 53.903 17.5695Z" fill="#262626"></path></svg>