<svg xmlns="http://www.w3.org/2000/svg" width="222" height="26" viewBox="0 0 222 26" fill="none"><g id="uuid-c522eee3-51ad-4d9f-be0f-dabe58d77c89" clip-path="url(#clip0_4249_1771)"><path id="Vector" d="M52.5283 3.7124H57.1109L59.5178 16.5084H59.7762L62.7474 3.7124H66.9425L69.9137 16.5084H70.1721L72.579 3.7124H77.1073V4.09316L73.1637 22.1381H67.6088L64.9436 10.7223H64.6852L62.0199 22.1381H56.465L52.5215 4.09316V3.7124H52.5283Z" fill="#999999"></path><path id="Vector_2" d="M85.6951 3.40621C90.6585 3.40621 93.2217 5.9151 93.4257 8.96113V9.34188H89.0267C88.9995 7.37013 87.592 6.62902 85.8039 6.62902C84.0157 6.62902 82.9346 7.44492 82.9346 8.62797C82.9346 9.81102 83.9069 10.3958 85.6475 10.7493L88.4351 11.3136C91.9707 12.0276 93.9357 13.6186 93.9357 16.7122C93.9357 19.8058 91.5559 22.4439 86.2798 22.4439C81.0036 22.4439 78.1684 19.8058 78.0664 16.685V16.2974H82.5199C82.7238 18.2692 84.1585 19.2143 86.2322 19.2143C88.3059 19.2143 89.3326 18.2692 89.3326 17.0385C89.3326 15.8079 88.4351 15.2708 86.4634 14.8628L83.6757 14.2985C80.2489 13.605 78.3248 11.6604 78.3248 8.89994C78.3248 6.13948 80.7317 3.39941 85.6951 3.39941V3.40621Z" fill="#999999"></path><path id="Vector_3" d="M104.685 3.40625C110.471 3.40625 112.926 6.96221 113.055 10.0898V10.4706H108.601C108.527 8.93397 107.602 6.88742 104.739 6.88742C101.877 6.88742 100.082 9.34192 100.082 12.9251C100.082 16.5082 101.768 18.9627 104.739 18.9627C107.711 18.9627 108.499 16.8618 108.683 15.2232H113.136V15.6107C112.858 18.7588 110.525 22.4439 104.692 22.4439C98.8581 22.4439 95.377 18.5548 95.377 12.9251C95.377 7.29537 98.7561 3.40625 104.692 3.40625H104.685Z" fill="#999999"></path><path id="Vector_4" d="M126.911 3.4194C131.161 3.4194 133.819 5.43875 134.105 8.71594V9.1035H131.868C131.711 6.34984 129.631 5.23477 126.952 5.23477C124.273 5.23477 122.41 6.37703 122.41 8.40998C122.41 10.4429 124.076 11.1092 126.517 11.5988L128.733 12.0339C132.058 12.7003 134.492 13.8629 134.492 17.0993C134.492 20.3357 131.868 22.4367 127.455 22.4367C123.043 22.4367 120.044 20.3901 119.711 17.0721V16.6914H121.975C122.322 19.4926 124.627 20.6213 127.442 20.6213C130.256 20.6213 132.174 19.4926 132.174 17.2421C132.174 14.9916 130.331 14.4544 127.85 13.9513L125.633 13.5162C122.397 12.877 120.092 11.4968 120.092 8.47117C120.092 5.44555 122.648 3.4126 126.911 3.4126V3.4194Z" fill="#999999"></path><path id="Vector_5" d="M137.729 3.7124H145.69C148.968 3.7124 151.578 5.58217 151.578 8.98855C151.578 12.3949 148.968 14.2647 145.69 14.2647H140.074V22.1449H137.735V3.7124H137.729ZM140.067 5.58217V12.4017H145.276C147.642 12.4017 149.233 11.1847 149.233 8.98175C149.233 6.77882 147.648 5.57537 145.276 5.57537H140.067V5.58217Z" fill="#999999"></path><path id="Vector_6" d="M162.341 3.40625C167.522 3.40625 171.085 6.91462 171.085 12.9251C171.085 18.9355 167.529 22.4439 162.341 22.4439C157.154 22.4439 153.584 18.9355 153.584 12.9251C153.584 6.91462 157.14 3.40625 162.341 3.40625ZM162.341 20.5537C166.23 20.5537 168.726 17.7389 168.726 12.9251C168.726 8.11127 166.23 5.29642 162.341 5.29642C158.452 5.29642 155.943 8.11127 155.943 12.9251C155.943 17.7389 158.452 20.5537 162.341 20.5537Z" fill="#999999"></path><path id="Vector_7" d="M188.123 19.2621C188.266 20.4111 188.456 21.0911 188.878 21.7574V22.1381H186.484C186.124 21.4106 185.92 20.6899 185.805 19.4389L185.648 17.6371C185.444 15.271 184.458 14.3327 181.412 14.3327H176.741V22.1381H174.402V3.7124H182.697C186.077 3.7124 188.647 5.3918 188.647 8.71659C188.647 11.3139 187.212 12.7485 185.179 13.272V13.5304C187.124 14.0063 187.688 15.1826 187.919 17.3039L188.123 19.2621ZM176.741 5.58217V12.4697H182.453C184.785 12.4697 186.342 11.3683 186.342 9.02935C186.342 6.69044 184.778 5.58897 182.453 5.58897H176.741V5.58217Z" fill="#999999"></path><path id="Vector_8" d="M190.17 3.7124H205.835V5.59577H199.179V22.1449H196.826V5.59577H190.17V3.7124Z" fill="#999999"></path><path id="Vector_9" d="M214.314 3.4194C218.563 3.4194 221.222 5.43875 221.507 8.71594V9.1035H219.27C219.114 6.34984 217.033 5.23477 214.354 5.23477C211.676 5.23477 209.813 6.37703 209.813 8.40998C209.813 10.4429 211.478 11.1092 213.919 11.5988L216.136 12.0339C219.461 12.7003 221.895 13.8629 221.895 17.0993C221.895 20.3357 219.27 22.4367 214.858 22.4367C210.445 22.4367 207.446 20.3901 207.113 17.0721V16.6914H209.377C209.724 19.4926 212.029 20.6213 214.844 20.6213C217.659 20.6213 219.576 19.4926 219.576 17.2421C219.576 14.9916 217.734 14.4544 215.252 13.9513L213.035 13.5162C209.799 12.877 207.494 11.4968 207.494 8.47117C207.494 5.44555 210.051 3.4126 214.314 3.4126V3.4194Z" fill="#999999"></path><path id="Vector_10" d="M22.5437 18.5753L11.8214 0H0.113281L15.119 26H22.5437V18.5753Z" fill="#999999"></path><path id="Vector_11" d="M37.9509 18.5753L27.2218 0H15.5137L30.5194 26H37.9509V18.5753Z" fill="#999999"></path><path id="Vector_12" d="M41.5266 4.32427L37.8143 4.34466V12.8708L45.239 0H30.3828" fill="#999999"></path></g><defs><clipPath id="clip0_4249_1771"><rect width="221.775" height="26" fill="white" transform="translate(0.113281)"></rect></clipPath></defs></svg>